<svg xmlns="http://www.w3.org/2000/svg" width="330" height="170" viewBox="0 0 330 170" fill="none"><path d="M158.374 164.466C158.374 167.426 126.034 169.825 86.1397 169.825C46.2453 169.825 13.9048 167.426 13.9048 164.466C13.9048 161.506 46.2453 159.107 86.1397 159.107C126.034 159.107 158.374 161.506 158.374 164.466Z" fill="#E5E3E1"></path><path d="M99.2144 79.2693H177.902V73.9268H99.2144V79.2693Z" fill="#BAB4A8"></path><path d="M99.2144 73.9268L115.789 49.8324H186.503L177.902 73.9268H99.2144Z" fill="#E2582D"></path><path d="M101.437 133.752H177.902V79.2695H101.437V133.752Z" fill="#E5E3E1"></path><path d="M148.875 82.353H144.8C144.806 82.2985 144.813 82.2439 144.82 82.1894C144.952 81.1396 145.062 80.1465 145.133 79.2693H150.891H148.875V82.353Z" fill="#CECAC2"></path><path d="M155.035 133.752H148.875V95.131H155.035V133.752ZM148.875 89.7108V82.3531H150.891V83.3356L151.892 82.3531H155.035V86.0824L148.875 89.7108" fill="#CECAC2"></path><path d="M155.035 82.353H151.892L155.035 79.2693V82.353ZM150.891 82.353H148.875V79.2693H150.891V82.353Z" fill="#C3BEB4"></path><path d="M300.52 117.806C300.52 117.806 301.726 110.558 304.695 109.344C307.665 108.13 307.424 107.045 307.995 103.364C308.566 99.6837 313.568 101.717 315.369 98.5404C317.171 95.3648 318.937 93.4692 320.413 97.1387C321.889 100.809 319.689 104.446 317.422 105.35C315.154 106.255 318.226 110.187 316.392 112.52C314.557 114.853 312.242 115.541 312.916 118.577C313.591 121.613 313.656 123.299 312.508 124.9C311.36 126.502 309.445 128.299 309.445 128.299L296.505 126.292C296.505 126.292 294.71 121.511 297.266 121.384C299.822 121.257 300.716 121.291 300.52 117.806" fill="#678742"></path><path d="M301.856 127.122C301.856 127.122 306.353 120.281 310.608 111.833C314.863 103.383 314.863 103.383 314.863 103.383C314.863 103.383 307.314 122.524 301.856 127.122Z" fill="#37664A"></path><path d="M316.271 136.497C316.271 136.497 316.333 132.081 318.447 131.086C320.561 130.09 320.25 129.469 320.25 127.23C320.25 124.991 324.292 125.737 325.287 123.685C326.282 121.632 327.401 120.343 328.956 122.388C330.51 124.431 329.266 126.795 327.65 127.541C326.033 128.287 328.831 130.339 327.712 131.894C326.593 133.449 324.914 134.072 325.784 135.813C326.655 137.554 326.903 138.549 326.219 139.606C325.536 140.663 324.292 141.907 324.292 141.907H314.219C314.219 141.907 312.292 139.233 314.219 138.922C316.146 138.612 316.831 138.549 316.271 136.497Z" fill="#37664A"></path><path d="M318.385 141.907C318.385 141.907 320.997 137.429 323.235 132.019C325.474 126.608 325.474 126.608 325.474 126.608C325.474 126.608 321.991 138.674 318.385 141.907Z" fill="#37664A"></path><path d="M304.191 133.137C304.191 133.137 304.291 125.979 307.718 124.366C311.145 122.753 310.641 121.745 310.641 118.116C310.641 114.487 317.192 115.696 318.805 112.37C320.418 109.042 322.232 106.953 324.751 110.266C327.271 113.579 325.256 117.41 322.635 118.62C320.014 119.83 324.55 123.156 322.736 125.677C320.921 128.197 318.2 129.205 319.611 132.028C321.022 134.851 321.426 136.464 320.317 138.177C319.208 139.892 317.192 141.907 317.192 141.907H300.864C300.864 141.907 297.74 137.573 300.864 137.069C303.989 136.564 305.098 136.464 304.191 133.137" fill="#99B746"></path><path d="M307.617 141.907C307.617 141.907 311.85 134.649 315.479 125.878C319.107 117.108 319.107 117.108 319.107 117.108C319.107 117.108 313.463 136.665 307.617 141.907" fill="#678742"></path><path d="M150.891 141.907C150.891 141.907 141.726 138.819 142.06 136.117C142.337 133.88 146.053 134.952 146.053 134.952C146.053 134.952 139.836 130.942 143.061 127.873C145.234 125.807 148.169 130.314 148.169 130.314C148.169 130.314 146.966 126.1 148.981 125.999C150.998 125.899 151.596 131.624 151.596 131.624C151.596 131.624 152.705 124.366 155.628 125.778C158.551 127.189 157.14 141.404 157.14 141.404L150.891 141.907" fill="#678742"></path><path d="M223.324 139.23H305.971V81.3027H223.324V139.23Z" fill="#BAB4A8"></path><path d="M155.035 79.2694V139.23H223.324V79.2694L188.519 45.1274L155.035 79.2694Z" fill="#E5E3E1"></path><path d="M311.081 79.2671H224.87L219.951 74.2018L212.389 66.4189L206.293 60.1447L202.478 56.2174L198.367 51.983L194.448 47.9503L191.706 45.1274L187.885 41.1918H274.393L278.183 45.1274L280.908 47.9503L284.795 51.983L288.875 56.2174L292.656 60.1447L298.704 66.4189L306.203 74.2018L311.081 79.2671" fill="#E2582D"></path><path d="M150.891 79.1013V83.3357L188.082 46.8415L224.87 83.3357V78.8996L187.88 41.1964L150.891 79.1013Z" fill="#F98D43"></path><path d="M224.87 83.3357H311.078V79.2696H224.87V83.3357Z" fill="#E2582D"></path><path d="M143.096 93.1143L155.191 85.9904H202.091L190.937 93.1143H143.096Z" fill="#F98D43"></path><path d="M202.091 85.9903V88.5443L191.206 95.1309H143.096V93.1142H190.937L202.091 85.9903" fill="#E2582D"></path><path d="M305.971 85.9905H223.324V81.8024L224.87 83.3357H305.971V85.9905Z" fill="#89857C"></path><path d="M223.324 85.9905L187.88 50.6388L155.035 83.3357V79.2694L188.082 46.8415L223.324 81.8024V85.9905Z" fill="#A09D9A"></path><path d="M297.505 131.423H273.719V91.3672H297.505V131.423Z" fill="#E5E3E1"></path><path d="M285.608 93.1166V129.675H275.328V93.1166H285.608Z" fill="#75726D"></path><path d="M295.888 93.1166V129.675H286.753V93.1166H295.888Z" fill="#75726D"></path><path d="M217.68 129.676H205.048V91.3674H217.68V129.676Z" fill="white"></path><path d="M216.201 93.1166V127.925H206.525V93.1166H216.201Z" fill="#75726D"></path><path d="M202.092 88.5444V139.23H155.035V95.131H191.207L202.092 88.5444" fill="#BAB4A8"></path><path d="M186.503 139.23H165.539V98.4912H186.503V139.23Z" fill="#54514C"></path><path d="M169.077 118.231C169.077 118.861 168.669 119.373 168.165 119.373C167.662 119.373 167.253 118.861 167.253 118.231C167.253 117.599 167.662 117.088 168.165 117.088C168.669 117.088 169.077 117.599 169.077 118.231Z" fill="#BAB4A8"></path><path d="M280.908 47.9502H194.448L191.706 45.1273H278.183L280.908 47.9502" fill="#EA7A2F"></path><path d="M288.874 56.2173H202.478L198.367 51.9829H284.795L288.874 56.2173Z" fill="#EA7A2F"></path><path d="M298.704 66.4189H212.388L206.293 60.1447H292.656L298.704 66.4189Z" fill="#EA7A2F"></path><path d="M311.081 79.2671H224.87L219.951 74.2018H306.203L311.081 79.2671Z" fill="#EA7A2F"></path><path d="M311.078 141.907H150.891V139.23H311.078V141.907Z" fill="#A89F91"></path><path d="M275.328 110.867L285.608 121.15V125.287L275.328 115.004V110.867" fill="#54514C"></path><path d="M294.131 129.675H289.994L286.753 126.433V122.296L294.131 129.675Z" fill="#54514C"></path><path d="M295.888 100.503L288.502 93.1166H295.888V100.503Z" fill="#54514C"></path><path d="M279.133 93.1166L285.608 99.5926V109.448L275.328 99.1652V93.1166H279.133" fill="#54514C"></path><path d="M295.888 109.883V119.739L286.753 110.593V100.738L295.888 109.883Z" fill="#54514C"></path><path d="M261.376 131.423H237.589V91.3672H261.376V131.423Z" fill="#E5E3E1"></path><path d="M249.478 93.1166V129.675H239.198V93.1166H249.478" fill="#75726D"></path><path d="M259.759 93.1166V129.675H250.624V93.1166H259.759Z" fill="#75726D"></path><path d="M239.198 110.867L249.478 121.15V125.287L239.198 115.004V110.867Z" fill="#54514C"></path><path d="M258.001 129.675H253.865L250.624 126.433V122.296L258.001 129.675" fill="#54514C"></path><path d="M259.759 100.503L252.373 93.1166H259.759V100.503Z" fill="#54514C"></path><path d="M243.004 93.1166L249.478 99.5926V109.448L239.198 99.1652V93.1166H243.004" fill="#54514C"></path><path d="M259.759 109.883V119.739L250.624 110.593V100.738L259.759 109.883Z" fill="#54514C"></path><path d="M216.201 106.851V109.795L206.525 100.125V97.1732L216.201 106.851Z" fill="#BAB4A8"></path><path d="M216.201 121.174V127.521L206.525 117.851V111.496L216.201 121.174Z" fill="#BAB4A8"></path><path d="M216.201 95.9231V101.6L207.727 93.1166H213.395L216.201 95.9231Z" fill="#BAB4A8"></path><path d="M37.8835 151.432H125.243V31.6464H37.8835V151.432Z" fill="#E5E3E1"></path><path d="M115.135 49.1377H46.7324C46.267 49.1377 45.8896 48.7604 45.8896 48.2948C45.8896 47.8293 46.267 47.452 46.7324 47.452H115.135C115.6 47.452 115.978 47.8293 115.978 48.2948C115.978 48.7604 115.6 49.1377 115.135 49.1377Z" fill="#BAB4A8"></path><path d="M115.135 64.2371H46.7324C46.267 64.2371 45.8896 63.8597 45.8896 63.3942C45.8896 62.9287 46.267 62.5514 46.7324 62.5514H115.135C115.6 62.5514 115.978 62.9287 115.978 63.3942C115.978 63.8597 115.6 64.2371 115.135 64.2371Z" fill="#BAB4A8"></path><path d="M87.3955 96.2974H46.7324C46.267 96.2974 45.8896 95.92 45.8896 95.4538C45.8896 94.989 46.267 94.6109 46.7324 94.6109H87.3955C87.8609 94.6109 88.2382 94.989 88.2382 95.4538C88.2382 95.92 87.8609 96.2974 87.3955 96.2974" fill="#BAB4A8"></path><path d="M87.3955 106.138H46.7324C46.267 106.138 45.8896 105.761 45.8896 105.295C45.8896 104.829 46.267 104.452 46.7324 104.452H87.3955C87.8609 104.452 88.2382 104.829 88.2382 105.295C88.2382 105.761 87.8609 106.138 87.3955 106.138" fill="#BAB4A8"></path><path d="M115.135 76.3828H59.6569C59.1915 76.3828 58.8142 76.0055 58.8142 75.54C58.8142 75.0745 59.1915 74.6971 59.6569 74.6971H115.135C115.6 74.6971 115.978 75.0745 115.978 75.54C115.978 76.0055 115.6 76.3828 115.135 76.3828" fill="#BAB4A8"></path><path d="M115.135 87.325H59.6569C59.1915 87.325 58.8142 86.9476 58.8142 86.4821C58.8142 86.0166 59.1915 85.6385 59.6569 85.6385H115.135C115.6 85.6385 115.978 86.0166 115.978 86.4821C115.978 86.9476 115.6 87.325 115.135 87.325" fill="#BAB4A8"></path><path d="M97.674 39.4441H64.7749C64.3625 39.4441 64.0278 39.1093 64.0278 38.6969V27.5471C64.0278 27.1339 64.3625 26.7999 64.7749 26.7999H97.674C98.0864 26.7999 98.421 27.1339 98.421 27.5471V38.6969C98.421 39.1093 98.0864 39.4441 97.674 39.4441Z" fill="#F98D43"></path><path d="M106.687 119.761H96.2449C96.2449 119.761 96.9867 118.57 97.8375 114.206C98.6884 109.834 97.0136 103.931 97.0136 103.931L101.466 104.557L105.917 103.931C105.917 103.931 104.243 109.834 105.094 114.206C105.945 118.57 106.687 119.761 106.687 119.761" fill="#75726D"></path><path d="M107.195 101.262C107.195 103.609 104.63 105.511 101.466 105.511C98.3014 105.511 95.7361 103.609 95.7361 101.262C95.7361 98.9149 98.3014 97.0133 101.466 97.0133C104.63 97.0133 107.195 98.9149 107.195 101.262Z" fill="#54514C"></path><path d="M109.237 98.3126C109.237 101.417 105.758 103.933 101.466 103.933C97.1735 103.933 93.6938 101.417 93.6938 98.3126C93.6938 95.2088 97.1735 92.6929 101.466 92.6929C105.758 92.6929 109.237 95.2088 109.237 98.3126Z" fill="#75726D"></path><path d="M107.511 120.456V120.463C107.511 120.844 107.198 121.157 106.816 121.157H96.2448C95.8631 121.157 95.55 120.844 95.55 120.463V120.456C95.55 120.075 95.8631 119.761 96.2448 119.761H106.816C107.198 119.761 107.511 120.075 107.511 120.456Z" fill="#BAB4A8"></path><path d="M107.511 121.852V121.859C107.511 122.24 107.198 122.553 106.816 122.553H96.2448C95.8631 122.553 95.55 122.24 95.55 121.859V121.852C95.55 121.471 95.8631 121.158 96.2448 121.158H106.816C107.198 121.158 107.511 121.471 107.511 121.852Z" fill="#54514C"></path><path d="M109.324 130.56H93.7371C93.4905 130.56 93.2545 130.428 93.1387 130.211C90.6421 125.517 96.2448 122.553 96.2448 122.553H106.816C106.816 122.553 112.419 125.517 109.922 130.211C109.806 130.428 109.57 130.56 109.324 130.56" fill="#75726D"></path><path d="M109.848 131.963H93.2971V130.56H109.848V131.963Z" fill="#54514C"></path><path d="M116.643 137.635H86.2973C85.885 137.635 85.5503 137.301 85.5503 136.888V132.71C85.5503 132.298 85.885 131.963 86.2973 131.963H116.643C117.055 131.963 117.39 132.298 117.39 132.71V136.888C117.39 137.301 117.055 137.635 116.643 137.635Z" fill="#75726D"></path><path d="M29.7775 57.2516C29.7775 57.2516 29.0815 63.147 33.0463 64.8357C37.0111 66.5236 40.069 58.4449 40.069 58.4449C40.069 58.4449 41.3305 55.7759 39.0126 53.7741C36.6954 51.7723 31.2876 51.983 29.7775 57.2516" fill="#231547"></path><path d="M33.0434 59.9206C33.0434 59.9206 32.6921 58.5159 31.8494 59.2885C31.0066 60.0611 31.3929 61.0444 32.1654 61.5712C32.9381 62.098 33.0081 62.1682 33.0434 62.695C33.0784 63.2218 33.4394 67.6826 31.1522 69.1927C28.8648 70.7035 31.2213 74.3558 34.3621 73.9344C37.5028 73.513 39.996 71.2654 39.996 71.2654C39.996 71.2654 38.9426 69.8958 38.2052 69.0522C37.4678 68.2093 37.5028 66.5124 37.5028 66.5124C37.5028 66.5124 38.9426 66.4885 39.8204 64.1005C40.6984 61.7117 39.996 57.9891 39.996 57.9891C39.996 57.9891 39.083 58.6563 37.3975 58.2349C35.712 57.8135 34.4129 58.867 34.1669 59.2182C33.9212 59.5694 33.6401 61.0444 33.2891 60.8337C32.9381 60.623 33.0434 59.9206 33.0434 59.9206" fill="#E54863"></path><path d="M34.1978 65.0649C34.1978 65.0649 35.0367 66.841 35.932 67.6771C36.4768 68.186 37.1961 68.2099 37.6968 68.0059C37.4926 67.2572 37.5028 66.5123 37.5028 66.5123C37.5028 66.5123 35.611 66.5773 34.9042 65.8211C34.1978 65.0649 34.1978 65.0649 34.1978 65.0649" fill="#AF2845"></path><path d="M63.4375 82.2529L65.7525 89.7907C65.9012 90.2764 66.4428 90.5207 66.9052 90.3115L76.2491 86.0876C76.6622 85.9008 76.8534 85.4211 76.6823 85.0011L71.1028 71.3333C70.9227 70.8924 70.414 70.6884 69.9792 70.882L60.8289 74.9647C60.3919 75.1597 60.2051 75.679 60.4165 76.1079L63.3875 82.1274L63.4375 82.2529Z" fill="white"></path><path d="M51.3623 162.559C51.2912 163.313 46.392 163.629 45.8112 163.59C45.2224 163.552 45.0394 162.876 44.7517 162.644C44.4628 162.405 44.1339 162.813 44.0426 163.458C43.9597 164.104 41.4957 163.895 40.6909 163.82C39.8946 163.745 39.9911 162.675 39.8222 161.108C39.6929 159.909 40.0822 159.274 40.3541 158.651C40.4356 158.464 40.5079 158.27 40.5531 158.061C40.7227 157.195 39.0078 150.174 39.1128 144.702C39.2097 139.232 39.8064 130.536 39.8064 130.536C39.9818 127.838 47.1457 128.482 47.1457 128.482C47.1457 128.482 46.5084 131.611 46.5834 132.307C46.6584 133.002 43.9714 156.429 43.9804 157.301L43.9825 157.318C44.0347 157.804 50.5668 160.525 51.2269 161.302C51.8954 162.077 51.4429 161.812 51.3623 162.559" fill="#E54863"></path><path d="M51.3624 162.559C51.2912 163.313 46.392 163.629 45.8113 163.59C45.2224 163.552 45.0394 162.876 44.7518 162.644C44.4628 162.405 44.134 162.813 44.0426 163.458C43.9598 164.104 41.4958 163.895 40.6909 163.82C39.8946 163.745 39.9912 162.675 39.8222 161.108C39.693 159.909 40.0822 159.274 40.3541 158.651C40.7563 158.845 41.1785 158.986 41.6028 158.991C43.3012 159.02 42.5961 157.747 43.143 157.553C43.3145 157.492 43.6268 157.399 43.9804 157.301L43.9825 157.318C44.0348 157.804 50.5669 160.525 51.2269 161.302C51.8954 162.077 51.4429 161.812 51.3624 162.559" fill="#231547"></path><path d="M36.5351 163.248C36.3834 163.99 31.4787 163.779 30.9055 163.677C30.324 163.577 30.2145 162.885 29.9531 162.624C29.6919 162.354 29.321 162.725 29.1608 163.357C29.0094 163.99 26.5821 163.517 25.7898 163.357C25.006 163.197 25.217 162.143 25.217 160.567C25.217 159.361 25.6719 158.771 26.009 158.182C26.1102 158.005 26.2031 157.819 26.2705 157.617C26.5316 156.774 25.5795 149.609 26.2705 144.18C26.953 138.751 28.4783 130.17 28.4783 130.17C28.942 127.507 35.9956 128.914 35.9956 128.914C35.9956 128.914 35.0265 131.957 35.0265 132.657C35.0265 133.357 29.8436 156.361 29.7593 157.229V157.245C29.7593 157.735 35.962 161.14 36.5351 161.983C37.1163 162.826 36.6953 162.514 36.5351 163.248" fill="#E54863"></path><path d="M36.5351 163.248C36.3834 163.99 31.4787 163.779 30.9055 163.677C30.324 163.577 30.2145 162.885 29.9531 162.624C29.6919 162.354 29.321 162.725 29.1608 163.357C29.0094 163.99 26.5821 163.517 25.7898 163.357C25.006 163.197 25.217 162.143 25.217 160.567C25.217 159.361 25.6719 158.771 26.009 158.182C26.3883 158.418 26.7928 158.603 27.2142 158.653C28.8996 158.865 28.335 157.524 28.8996 157.389C29.0767 157.347 29.3969 157.288 29.7593 157.229V157.245C29.7593 157.735 35.962 161.14 36.5351 161.983C37.1163 162.826 36.6953 162.514 36.5351 163.248" fill="#231547"></path><path d="M48.1818 129.85C48.0724 131.216 45.7548 131.637 44.5917 132.059C43.4373 132.48 40.1758 132.277 39.2236 131.57C38.2712 130.862 37.8836 118.993 37.8836 118.993C37.8836 118.993 36.4844 131.114 35.7429 131.325C35.0096 131.536 29.001 131.746 27.6356 131.325C26.2705 130.903 26.7929 130.17 26.5738 128.906C26.3546 127.641 25.0061 114.045 25.2086 112.047C25.4278 110.041 26.4643 102.876 26.4643 102.876C26.4643 102.876 34.0574 102.977 36.7963 102.876C39.5268 102.774 44.2127 102.311 44.2127 102.311C44.2127 102.311 47.7943 125.323 48.1568 129.319C48.1818 129.58 48.1903 129.765 48.1818 129.85" fill="#41277A"></path><path d="M48.1817 129.85C48.0723 131.216 45.7548 131.637 44.5916 132.059C43.4373 132.48 40.1757 132.277 39.2236 131.57C38.2711 130.862 37.8835 118.993 37.8835 118.993L38.6924 111.937H41.5916L39.7374 112.991C39.7374 112.991 40.1672 127.001 41.5916 128.796C42.4427 129.867 45.6874 129.656 48.1567 129.319C48.1817 129.58 48.1902 129.765 48.1817 129.85" fill="#231547"></path><path d="M45.9655 79.1678C46.0518 79.2985 48.599 85.6303 49.1958 85.6655C49.7928 85.7006 55.3412 83.9095 57.2021 83.5232C59.0629 83.1369 61.065 83.0316 61.4161 82.575C61.7672 82.1185 61.9076 81.31 62.7503 80.8184C63.5929 80.3267 64.8569 79.835 64.892 80.3267C64.9271 80.8183 63.4174 82.1887 63.4174 82.1887L64.2951 85.525C64.2951 85.525 62.1534 85.3494 61.9778 85.4547C61.8023 85.5601 55.903 88.194 52.9881 89.459C50.0739 90.7233 48.4234 91.6715 46.8433 91.1447C45.2631 90.6179 43.7532 88.729 42.6648 86.3372C41.5761 83.9446 41.014 80.8886 42.4539 79.6946C43.8936 78.5005 44.7363 77.3065 45.9655 79.1678" fill="#E54863"></path><path d="M43.926 81.5236C43.926 81.5236 43.926 99.925 44.2126 102.311C44.4903 104.705 39.0803 104.073 36.6276 104.073C34.1667 104.073 27.2142 102.943 26.4642 102.876C26.0598 102.842 26.2786 100.507 26.5821 98.2311C26.8348 96.2502 27.1467 94.3112 27.1467 93.9571V93.5102C27.1467 91.2178 27.1467 81.5908 27.1467 81.5908C27.1467 81.5908 25.8826 82.3664 25.3854 82.3664C25.3434 82.3664 25.2759 82.3582 25.2001 82.3328C24.4163 82.1057 22.0482 80.8242 21.5256 79.7617L21.4582 79.6272C21.0368 78.4302 25.0399 71.5432 25.8826 70.6331C26.5821 69.8657 30.0374 68.913 31.1497 68.6179C31.3689 68.5589 31.4952 68.5252 31.4952 68.5252L36.4846 70.4896L39.0803 69.2254C39.0803 69.2254 43.2939 70.7758 43.8586 71.4759C44.4232 72.1753 47.297 79.1296 47.297 79.9051C47.297 80.6807 43.926 81.5236 43.926 81.5236Z" fill="#99B746"></path><path d="M33.0433 71.6515C33.0433 71.6515 33.9604 72.6348 34.3619 72.389C34.7638 72.1432 35.7469 70.8438 35.8875 70.7736C36.0279 70.7033 36.5196 70.7736 36.5196 70.7736C36.5196 70.7736 37.1516 70.4575 37.292 70.4575C37.4327 70.4575 37.7484 71.6911 38.0647 71.4431C38.3804 71.195 39.4692 69.333 39.3289 69.0169C39.1882 68.7008 38.3455 67.858 38.0998 68.1038C37.8538 68.3496 36.5196 70.2438 36.5196 70.2438C36.5196 70.2438 31.8142 67.9805 31.6385 68.0597C31.4632 68.1389 31.1521 68.6149 31.1521 68.6149C31.1521 68.6149 32.3053 71.0321 33.0433 71.6515" fill="white"></path><path d="M27.1438 87.5447V81.5932C27.1459 81.5917 27.1467 81.591 27.1467 81.591C27.1467 81.591 27.1467 84.526 27.1467 87.5409C27.1459 87.5424 27.145 87.5432 27.1438 87.5447Z" fill="#7F9D8B"></path><path d="M27.1467 87.541C27.1467 84.526 27.1467 81.591 27.1467 81.591C27.1467 81.591 27.1459 81.5918 27.1438 81.5933V81.591C27.1438 81.591 28.689 79.5542 29.2157 77.6226C29.2157 77.6226 29.7071 84.1151 27.1467 87.541" fill="#5A8349"></path><path d="M43.9288 81.5208L43.2793 76.3232L45.4413 81.0642L43.9288 81.5208Z" fill="#5A8349"></path><path d="M84.0743 120.931L72.5962 120.19L5.78356 87.96L3.14558 86.6868L2.37023 86.308C0.962907 85.625 0.145508 84.2337 0.145508 82.7842C0.145508 82.2028 0.271905 81.6125 0.549949 81.0559C1.51907 79.1087 3.90403 78.3084 5.8679 79.2775L6.79466 79.7326L9.19651 80.9214L75.1495 113.446L84.0743 120.931" fill="#231547"></path><path d="M9.19644 80.9213L5.78349 87.96L3.14551 86.6867L6.79459 79.7325L9.19644 80.9213Z" fill="#FFAF5F"></path><path d="M3.14548 86.6868C3.14548 86.6868 0.482476 86.4619 2.16792 88.2888C3.85344 90.115 5.88618 91.6049 14.5768 94.9763C23.2678 98.3484 25.3877 98.0159 24.0381 96.6015C22.6885 95.187 3.14548 86.6868 3.14548 86.6868Z" fill="#FFAF5F"></path><path d="M84.0742 120.931L72.5961 120.19C72.5961 120.19 71.2559 115.798 75.1494 113.446L84.0742 120.931Z" fill="#75726D"></path><path d="M35.0604 102.193C35.2203 102.665 31.3774 101.612 30.425 101.291C29.4812 100.979 29.692 100.136 27.1468 98.61C26.97 98.5009 26.776 98.3747 26.5822 98.2312C24.0204 96.334 20.3459 91.6394 20.0174 91.395C19.6631 91.1253 19.1069 90.1808 18.7364 89.6496C18.3655 89.1273 17.9946 88.8067 18.1043 87.5424C18.1801 86.5397 20.5397 81.7344 21.5257 79.7618C22.0483 80.8243 24.4164 82.1058 25.2002 82.3329C24.7114 83.5472 23.346 86.9858 23.2112 87.5424C23.051 88.2254 23.5821 88.7058 24.9472 90.3325C25.4698 90.9564 26.2787 92.1871 27.1468 93.5104C28.5457 95.6429 30.1133 98.0459 30.9561 98.6608C32.3214 99.6643 32.0095 99.6053 32.3719 100.347C32.7428 101.088 34.9002 101.712 35.0604 102.193" fill="#E54863"></path><path d="M147.916 158.538C147.916 158.538 148.197 160.31 148.584 161.013C148.971 161.716 148.994 164.096 148.915 164.368C148.836 164.641 145.538 166.079 144.947 165.449C144.355 164.819 144.261 164.405 143.92 164.703C143.579 165.001 143.396 165.833 142.661 165.896C141.927 165.959 137.021 166.655 136.675 165.843C136.33 165.03 136.132 164.096 136.825 163.604C137.517 163.112 141.686 162.642 142.491 161.403C143.296 160.165 143.063 159.7 143.231 159.654C143.399 159.609 147.248 156.062 147.916 158.538Z" fill="#231547"></path><path d="M130.375 159.089C130.375 159.089 130.48 160.881 130.796 161.619C131.112 162.356 130.902 164.727 130.796 164.99C130.691 165.254 127.268 166.36 126.741 165.675C126.214 164.99 126.161 164.569 125.793 164.832C125.424 165.095 125.161 165.905 124.424 165.896C123.685 165.886 118.735 166.096 118.471 165.254C118.208 164.411 118.103 163.462 118.84 163.041C119.578 162.619 123.772 162.561 124.695 161.408C125.618 160.254 125.431 159.769 125.602 159.74C125.775 159.711 129.954 156.561 130.375 159.089" fill="#231547"></path><path d="M145.646 159.875C144.491 160.517 142.696 159.775 142.073 159.252C141.432 158.721 134.909 134.065 134.379 132.901C133.847 131.746 133.115 123.528 133.115 123.528C133.115 123.528 131.85 128.375 131.741 129.007C131.639 129.639 131.117 158.83 130.897 159.775C130.696 160.718 128.791 160.828 127.948 160.828C127.173 160.828 125.596 160.289 124.695 159.884C124.619 159.842 124.543 159.808 124.476 159.775C123.633 159.353 123.212 125.846 123.212 125.534C123.212 125.213 125.74 99.8242 125.74 99.8242C125.74 99.8242 142.073 94.868 143.252 100.616C144.441 106.357 142.384 128.796 142.57 129.529C142.747 130.271 148.174 155.349 148.394 157.667C148.595 159.985 146.809 159.252 145.646 159.875" fill="#41277A"></path><path d="M128.901 60.992C128.901 60.992 126.004 59.8324 126.952 57.3039C127.9 54.7753 129.849 56.6187 129.849 56.6187C129.849 56.6187 135.716 55.0383 137.707 56.5133C139.698 57.989 138.802 60.2015 138.802 60.2015C138.802 60.2015 140.435 62.0456 139.646 64.7848C138.855 67.5248 135.326 68.157 135.326 68.157L128.901 60.992" fill="#231547"></path><path d="M128.901 60.992C128.901 60.992 128.283 65.4169 129.276 67.5248C130.27 69.6319 131.271 69.5796 131.271 69.5796C131.271 69.5796 130.817 73.211 129.99 73.6601C129.163 74.1099 130.691 77.482 132.903 78.2718C135.116 79.0623 137.381 78.1941 138.065 76.2312C138.75 74.2683 138.381 73.6601 138.381 73.6601C138.381 73.6601 136.836 73.3373 136.538 72.2135C136.239 71.0897 135.853 67.7355 135.853 67.7355C135.853 67.7355 137.876 65.9437 137.707 64.6271C137.538 63.3098 136.959 63.8896 136.696 64.2057C136.433 64.5218 136.011 65.1539 135.695 64.8901C135.379 64.6271 135.537 64.258 135.537 63.4682C135.537 62.6777 135.168 61.7818 134.484 61.308C133.799 60.8336 129.795 61.8348 128.901 60.992" fill="#FFB2A8"></path><path d="M144.82 82.1893C144.171 87.357 142.974 93.9317 143.016 95.0786C143.084 96.9078 143.792 100.204 143.016 101.122C142.41 101.83 135.558 103.179 131.218 103.213C129.987 103.221 128.959 103.12 128.336 102.876C125.529 101.754 125.108 101.679 125.108 100.557C125.108 100.228 125.167 99.0993 125.243 97.6744C125.352 95.6009 125.513 92.9035 125.631 91.1252V91.1162C125.655 90.6694 125.681 90.2823 125.698 89.9782C125.732 89.5149 125.74 89.2452 125.74 89.2452L123.7 92.6928L118.222 89.2452C118.222 89.2452 118.72 88.0736 119.453 86.3789C121.299 82.0803 124.67 74.4005 125.318 73.7938C126.229 72.9509 130.442 71.4759 130.442 71.4759L133.257 75.2688L136.274 71.4759C136.274 71.4759 144.02 74.1898 145.03 75.8845C145.402 76.5166 145.207 79.1041 144.82 82.1893" fill="#FC4254"></path><path d="M131.218 103.213L131.428 100.346L125.243 97.6744C125.352 95.6009 125.513 92.9035 125.631 91.1251V91.1162L130.232 89.8101L135.078 91.2933C135.078 91.2933 139.502 88.8237 140.16 87.9809C140.817 87.1381 140.615 82.2909 140.615 82.2909C140.626 81.3502 141.039 80.9542 141.727 80.9542C142.481 80.9542 143.568 81.4309 144.82 82.1893C144.813 82.2439 144.806 82.2984 144.799 82.353C144.327 86.0636 143.586 90.4541 143.226 93.038C143.222 93.0634 143.219 93.0888 143.216 93.1142C143.169 93.4549 143.128 93.7628 143.096 94.0318C143.045 94.4696 143.015 94.8051 143.015 95.0128C143.015 95.036 143.015 95.0584 143.016 95.0786C143.06 96.2719 143.377 98.0891 143.376 99.4632C143.376 100.196 143.286 100.803 143.016 101.122C142.41 101.83 135.558 103.179 131.218 103.213" fill="#CA2043"></path><path d="M123.7 92.6929L118.222 89.2453C118.222 89.2453 118.72 88.0737 119.453 86.379C120.966 86.6323 123.448 87.0179 124.421 87.0179C124.678 87.0179 124.83 86.9902 124.83 86.9267C124.83 86.5053 125.175 80.6046 125.175 80.6046L125.74 89.2453L123.7 92.6929V92.6929Z" fill="#CA2043"></path><path d="M93.3278 78.8719L98.7923 84.6261C98.8715 84.7091 98.9671 84.7756 99.0732 84.8204L132.5 99.0621C132.822 99.1981 133.024 99.5127 133.013 99.8616C132.96 101.392 133.031 105.653 135.221 108.109C137.478 110.639 143.891 112.3 145.952 112.78C146.332 112.868 146.718 112.685 146.893 112.337L155.107 96.0023C155.301 95.6153 155.175 95.1475 154.81 94.9144C152.755 93.6031 146.244 89.5771 143.016 89.1079C139.98 88.6655 137.594 91.3502 136.713 92.5181C136.483 92.823 136.074 92.9283 135.722 92.7819L131.47 91.0095C131.35 90.9594 131.222 90.9385 131.092 90.946L126.142 91.2568C125.812 91.2777 125.5 91.1037 125.345 90.8115L124.061 88.392C123.926 88.138 123.67 87.9699 123.383 87.9475L118.871 87.591C118.639 87.5724 118.424 87.4588 118.279 87.2757L115.196 83.406C115.026 83.193 114.763 83.075 114.491 83.0899L110.198 83.3223C109.906 83.338 109.626 83.2012 109.46 82.9606L107.602 80.2827C107.438 80.0473 107.167 79.9113 106.881 79.921L103.53 80.0346C103.316 80.0421 103.107 79.9673 102.946 79.8261L99.496 76.7984C99.3047 76.6311 99.0478 76.5586 98.7975 76.6019L93.7961 77.4605C93.132 77.5748 92.8638 78.3833 93.3278 78.8719" fill="#FFAF5F"></path><path d="M143.508 108.601C143.508 108.601 143.157 111.586 143.157 112.007C143.157 112.429 142.7 112.85 142.174 112.92C141.647 112.991 137.89 111.902 137.749 110.761C137.609 109.619 138.241 109.689 138.732 109.338C139.224 108.987 140.618 108.109 140.618 108.109L143.508 108.601" fill="#ED827A"></path><path d="M141.015 105.404C141.015 105.404 139.837 107.828 140.163 108.25C140.488 108.671 143.719 110.146 144.07 109.619C144.421 109.092 145.123 107.512 145.018 107.055C144.912 106.598 141.542 104.842 141.015 105.404" fill="white"></path><path d="M143.754 74.6972C143.754 74.6972 137.679 75.4795 141.331 83.2071C144.982 90.9339 145.474 92.2684 145.334 92.9708C145.193 93.6731 139.927 105.264 140.488 105.966C141.05 106.669 145.024 108.425 145.354 107.723C145.685 107.02 150.671 95.6405 151.303 93.4624C151.935 91.2851 145.966 74.9677 143.754 74.6972" fill="#FC4254"></path><path d="M122.846 94.9487C122.846 94.9487 120.21 98.2394 118.787 97.5019C117.365 96.7644 101.774 88.7566 101.721 87.8077C101.669 86.8595 102.242 86.1705 102.242 86.1705L122.846 94.9487Z" fill="#FC4254"></path><path d="M101.718 87.4392C101.718 87.4392 100.984 87.4915 100.721 86.9648C100.457 86.438 100.721 85.5227 100.721 85.5227L102.242 86.1705L101.718 87.4392" fill="white"></path><path d="M100.604 86.4814C100.604 86.4814 97.2445 85.1208 96.8231 83.9096C96.4018 82.6976 97.3498 81.644 98.1924 81.8017C99.0358 81.9601 99.8785 82.7507 100.089 83.3297C100.3 83.9096 100.721 85.5228 100.721 85.5228L100.604 86.4814" fill="#ED827A"></path><path d="M129.276 71.905C129.276 71.905 129.989 73.1618 130.305 74.0749C130.621 74.988 130.726 76.1125 131.042 75.9018C131.358 75.6903 133.257 75.2689 133.257 75.2689C133.257 75.2689 134.273 76.569 134.659 76.1476C135.046 75.7255 137.863 72.3892 137.701 72.0029C137.539 71.6166 136.415 71.0898 136.239 71.0898C136.064 71.0898 133.15 74.6973 133.15 74.6973C133.15 74.6973 131.113 71.5815 130.761 71.3005C130.41 71.0196 129.301 71.5262 129.276 71.905" fill="white"></path><path d="M131.271 69.5797C131.271 69.5797 133.377 69.316 134.009 68.4201C134.009 68.4201 133.693 70.7551 131.018 71.0898L131.271 69.5797Z" fill="#ED827A"></path><path d="M133.114 123.528C133.114 123.528 131.85 128.375 131.741 129.007C131.639 129.639 131.117 158.83 130.897 159.775C130.696 160.718 128.791 160.828 127.948 160.828C127.173 160.828 125.597 160.289 124.695 159.884C126.6 159.597 128.588 159.218 128.588 158.83C128.588 158.089 129.853 129.749 130.055 128.485C130.274 127.22 131.724 123.207 131.724 123.207V111.937L133.114 123.528Z" fill="#231547"></path><path d="M235.155 166.612C235.155 166.612 228.704 161.673 229.007 159.454C229.309 157.236 233.643 159.958 233.643 159.958C233.643 159.958 230.408 154.918 232.076 153.204C233.744 151.49 236.666 157.136 236.666 157.136C236.666 157.136 237.07 153.103 239.287 154.313C241.505 155.522 243.218 164.193 243.218 164.193L245.25 163.866C245.25 163.866 246.834 154.588 249.051 154.184C251.269 153.781 250.072 157.842 250.072 157.842C250.072 157.842 255.212 151.951 257.127 152.88C259.042 153.809 252.893 161.974 252.893 161.974C252.893 161.974 255.313 159.858 256.22 161.37C257.127 162.882 251.885 166.612 251.885 166.612H235.155" fill="#99B746"></path><path d="M246.644 128.4V166.612H240.194V128.4H246.644Z" fill="#75726D"></path><path d="M246.644 128.4V135.304L240.194 134.852V128.4H246.644" fill="#54514C"></path><path d="M222.052 109.805V129.667C222.052 130.536 222.742 131.25 223.611 131.278L262.717 132.582C263.628 132.613 264.383 131.882 264.383 130.971V108.595C264.383 107.684 263.631 106.954 262.721 106.982L223.615 108.194C222.744 108.22 222.052 108.934 222.052 109.805" fill="#F98D43"></path><path d="M261.364 109.819H261.356L225.064 110.943C224.941 110.946 224.844 111.046 224.844 111.17V128.306C224.844 128.429 224.94 128.529 225.063 128.532L261.356 129.742L261.521 129.68L261.591 129.516V110.046L261.522 109.882L261.364 109.819ZM261.366 130.49L261.331 130.489L225.039 129.279C224.511 129.263 224.097 128.835 224.097 128.306V111.17C224.097 110.64 224.511 110.213 225.041 110.195L261.334 109.072C261.601 109.074 261.851 109.162 262.042 109.347C262.233 109.532 262.338 109.781 262.338 110.046V129.516C262.338 129.782 262.232 130.031 262.041 130.216C261.857 130.394 261.619 130.49 261.366 130.49" fill="white"></path><path d="M233.021 119.147C232.753 118.878 232.46 118.664 232.144 118.506C231.828 118.347 231.508 118.215 231.189 118.111C230.869 118.007 230.576 117.905 230.313 117.807C230.049 117.709 229.833 117.581 229.668 117.424C229.503 117.268 229.419 117.05 229.419 116.77C229.419 116.583 229.461 116.407 229.543 116.242C229.626 116.077 229.763 115.939 229.95 115.831C230.138 115.723 230.387 115.666 230.697 115.66C231.043 115.654 231.403 115.724 231.772 115.872C232.14 116.019 232.514 116.257 232.89 116.585C233.162 115.54 233.298 115.015 233.569 113.963C233.185 113.603 232.742 113.34 232.241 113.171C231.739 113.002 231.229 112.926 230.709 112.941C229.932 112.966 229.283 113.168 228.763 113.544C228.243 113.919 227.855 114.406 227.6 115.002C227.343 115.598 227.215 116.253 227.215 116.969C227.215 117.617 227.295 118.153 227.458 118.581C227.62 119.009 227.832 119.357 228.096 119.625C228.359 119.892 228.655 120.109 228.979 120.274C229.302 120.439 229.621 120.574 229.934 120.676C230.245 120.777 230.536 120.886 230.804 121C231.072 121.115 231.29 121.252 231.455 121.413C231.62 121.574 231.703 121.793 231.703 122.064C231.703 122.276 231.66 122.46 231.574 122.612C231.487 122.763 231.35 122.879 231.166 122.958C230.982 123.037 230.73 123.074 230.414 123.067C229.955 123.058 229.493 122.934 229.029 122.698C228.565 122.462 228.157 122.168 227.803 121.816C227.508 122.834 227.361 123.342 227.068 124.353C227.437 124.743 227.921 125.074 228.521 125.343C229.12 125.612 229.747 125.759 230.403 125.78C231.187 125.807 231.84 125.646 232.36 125.294C232.88 124.942 233.269 124.462 233.529 123.853C233.789 123.246 233.92 122.575 233.92 121.845C233.92 121.188 233.836 120.64 233.671 120.203C233.505 119.767 233.287 119.414 233.021 119.147" fill="white"></path><path d="M238.242 120.638C238.564 119.347 238.88 118.066 239.256 116.54C239.633 118.054 239.95 119.339 240.273 120.653C239.532 120.648 238.942 120.643 238.242 120.638ZM238.17 113.009C236.772 118.16 236.074 120.694 234.676 125.671C235.59 125.701 236.046 125.715 236.96 125.745C237.188 124.84 237.391 124.031 237.582 123.272C238.78 123.296 239.672 123.314 240.93 123.339C241.121 124.119 241.324 124.955 241.551 125.892C242.482 125.922 242.949 125.937 243.88 125.967C242.478 120.671 241.777 118.066 240.375 112.944C239.493 112.97 239.052 112.983 238.17 113.009" fill="white"></path><path d="M247.316 112.772C246.421 112.799 245.973 112.812 245.077 112.838C245.077 118.105 245.077 120.739 245.077 126.005C247.479 126.082 248.68 126.121 251.082 126.198C251.082 124.984 251.082 124.377 251.082 123.162C249.576 123.135 248.823 123.121 247.316 123.094C247.316 118.965 247.316 116.9 247.316 112.772" fill="white"></path><path d="M254.927 123.301C254.927 122.344 254.927 121.543 254.927 120.791C256.289 120.8 257.029 120.806 258.443 120.816C258.443 119.645 258.443 119.058 258.443 117.886C257.029 117.895 256.289 117.899 254.927 117.907C254.927 117.216 254.927 116.478 254.927 115.613C256.524 115.587 257.321 115.575 258.918 115.548C258.918 114.319 258.918 113.704 258.918 112.473C256.439 112.547 255.2 112.584 252.721 112.657C252.721 118.094 252.721 120.814 252.721 126.251C255.259 126.332 256.527 126.373 259.065 126.455C259.065 125.224 259.065 124.609 259.065 123.378C257.41 123.348 256.582 123.332 254.927 123.301" fill="white"></path><path d="M228.996 167.316H260.487C260.487 167.316 242.599 154.933 228.996 167.316Z" fill="#E5E3E1"></path><path d="M230.632 29.6594H267.201C270.828 19.7418 260.686 21.6225 257.463 24.1757C257.194 11.4112 246.649 15.1061 240.202 22.9667C236.777 20.1445 232.815 24.4611 230.632 29.6594" fill="#F2F1F0"></path><path d="M130.22 37.9407H177.902C183.247 30.6562 172.214 30.4754 167.253 33.122C169.319 25.1605 159.575 21.0703 151.35 28.4833C149.897 24.2654 140.906 27.0248 140.105 33.122C137.389 30.0166 130.22 37.9407 130.22 37.9407" fill="#F2F1F0"></path><path d="M189.016 11.3904H213.878C219.415 2.78558 205.7 -0.282436 199.481 8.32311C199.481 5.00029 191.499 7.21575 189.016 11.3904Z" fill="#F2F1F0"></path><path d="M182.353 152.781H197.004C194.789 147.3 186.952 146.589 182.353 152.781Z" fill="#E5E3E1"></path><path d="M289.514 161.813H303.399C305.699 156.417 293.091 155.451 289.514 161.813Z" fill="#E5E3E1"></path><path d="M267.196 153.264H273.719C271.881 150.027 268.388 149.856 267.196 153.264Z" fill="#E5E3E1"></path></svg>