<svg xmlns="http://www.w3.org/2000/svg" width="330" height="170" viewBox="0 0 330 170" fill="none"><g clip-path="url(#clip0_56_1103)"><path d="M90.3309 152.348C90.3309 152.348 85.4108 133.164 83.8422 125.616C82.2736 118.068 82.3445 116.932 82.3445 116.932C82.3445 116.932 90.4632 129.879 94.999 135.894C99.5346 141.91 100.48 143.55 100.48 143.55L90.3309 152.348Z" fill="#37664A"></path><path d="M82.0784 163.628C82.0784 163.628 79.5016 151.581 73.9579 145.231C68.4142 138.882 62.2405 138.251 62.2405 138.251C62.2405 138.251 67.3358 135.224 74.9936 140.017C82.6515 144.811 87.307 153.129 87.307 153.129C87.307 153.129 80.1316 141.863 79.3756 134.885C78.6197 127.907 78.4585 125.745 78.4585 125.745C78.4585 125.745 83.0905 135.602 86.4618 139.513C89.8331 143.423 97.435 150.736 97.435 150.736C97.435 150.736 85.0332 164.153 82.0784 163.628Z" fill="#99B746"></path><path d="M257.895 89.4741H246.626L226.786 48.439L231.522 39.4577L257.895 89.4741Z" fill="#5B1727"></path><path d="M231.521 30.3669L227.531 38.0892L222.965 46.9247L217.693 57.1225L212.406 67.3557L200.975 89.4741H85.4429V86.717L95.7749 67.3557L101.238 57.1225L106.686 46.9247L111.398 38.0892L115.524 30.3654L231.521 30.3669Z" fill="#AF4552"></path><path d="M147.011 49.2863H174.956C176.137 49.2863 176.861 50.5806 176.246 51.5893L176.245 51.5913C175.97 52.0414 175.482 52.3164 174.955 52.3164H147.009C145.779 52.3164 145.064 50.9232 145.78 49.9216L145.781 49.9196C146.065 49.522 146.523 49.2863 147.011 49.2863Z" fill="white"></path><path d="M91.1008 162.017H199.049V89.474H91.1008V162.017Z" fill="#A6C0D1"></path><path d="M252.261 86.3286V162.018H199.051V89.4722H201.168L227.546 39.4568L252.261 86.3286Z" fill="#D7E7F4"></path><path d="M227.544 43.8795L199.049 97.3792V89.4742H201.17L227.544 39.4577V43.8795Z" fill="#A6C0D1"></path><path d="M227.546 39.4566L225.024 43.8819L252.261 95.0186V86.3284L227.546 39.4566Z" fill="#A6C0D1"></path><path d="M199.049 97.3792H91.1008V89.4742H199.049V97.3792Z" fill="#6F95AA"></path><path d="M199.049 156.767H143.045V162.017H199.049V156.767Z" fill="#D7E7F4"></path><path d="M193.946 152.348H148.084V156.767H193.946V152.348Z" fill="#BDD5E5"></path><path d="M182.859 103.098H159.004C158.169 103.098 157.492 103.776 157.492 104.612V152.348H184.371V104.612C184.371 103.776 183.694 103.098 182.859 103.098Z" fill="#8C3341"></path><path d="M182.364 134.391V149.307C182.364 149.864 181.913 150.316 181.356 150.316H160.502C159.945 150.316 159.494 149.864 159.494 149.307V134.391C159.494 133.834 159.945 133.382 160.502 133.382H181.356C181.913 133.382 182.364 133.834 182.364 134.391Z" fill="#CE684D"></path><path d="M162.909 129.011C162.909 129.864 162.218 130.556 161.366 130.556C160.513 130.556 159.823 129.864 159.823 129.011C159.823 128.157 160.513 127.466 161.366 127.466C162.218 127.466 162.909 128.157 162.909 129.011Z" fill="#CE684D"></path><path d="M109.782 104.107H96.931C96.3742 104.107 95.9231 104.559 95.9231 105.117V145.736C95.9231 146.293 96.3742 146.746 96.931 146.746H109.782C110.339 146.746 110.79 146.293 110.79 145.736V105.117C110.79 104.559 110.339 104.107 109.782 104.107Z" fill="#346697"></path><path d="M97.4351 145.231V105.621H109.278V145.231H97.4351Z" fill="#D7E7F4"></path><path d="M224.789 97.7037H212.616C212.059 97.7037 211.608 98.1553 211.608 98.7129V141.594C211.608 142.152 212.059 142.604 212.616 142.604H224.789C225.346 142.604 225.797 142.152 225.797 141.594V98.7129C225.797 98.1553 225.346 97.7037 224.789 97.7037Z" fill="#346697"></path><path d="M224.356 99.2966V141.011H213.052V99.2966H224.356Z" fill="#DFEFED"></path><path d="M242.205 97.7037H230.033C229.476 97.7037 229.025 98.1553 229.025 98.7129V141.594C229.025 142.152 229.476 142.604 230.033 142.604H242.205C242.762 142.604 243.213 142.152 243.213 141.594V98.7129C243.213 98.1553 242.762 97.7037 242.205 97.7037Z" fill="#346697"></path><path d="M241.773 99.2966V141.011H230.469V99.2966H241.773Z" fill="#DFEFED"></path><path d="M126.414 153.011V141.952H144.353V153.011H126.414ZM144.353 129.589V140.648H126.414V129.589H144.353ZM126.414 128.285V117.227H144.353V128.285H126.414ZM144.353 104.864V115.923H126.414V104.864H144.353ZM144.353 89.474V103.56H126.414V89.474H124.969V162.017H126.414V154.314H144.353V162.017H145.797V89.474H144.353Z" fill="#6F95AA"></path><path d="M231.522 30.3655L227.531 38.0894H111.398L115.524 30.3655H231.522Z" fill="#CE684D"></path><path d="M222.965 46.9247L217.693 57.1226H101.238L106.686 46.9247H222.965Z" fill="#CE684D"></path><path d="M206.863 78.083L212.406 67.3558H95.7749L90.0505 78.083H206.863Z" fill="#CE684D"></path><path d="M224.295 99.9727L223.927 99.4832C224.099 99.5993 224.23 99.7708 224.295 99.9727Z" fill="white"></path><path d="M213.052 104.111L224.356 118.158V127.16L213.052 113.032V104.111Z" fill="white"></path><path d="M241.773 139.8V141.011H235.433L230.469 134.805V125.753L241.773 139.8Z" fill="white"></path><path d="M241.773 118.209V122.977L230.469 108.097V103.349L241.773 118.209Z" fill="white"></path><path d="M224.356 140.906V141.011H221.513L213.052 132.766V129.365L224.356 140.906Z" fill="white"></path><path d="M231.522 30.3654V39.4577L205.148 89.4741H200.975L231.522 30.3654Z" fill="#8C3341"></path><path d="M262.068 89.4741H257.895L231.521 39.4577V30.3654L262.068 89.4741Z" fill="#8C3341"></path><path d="M203.994 89.4741H85.4429V86.717H203.994V89.4741Z" fill="#8C3341"></path><path d="M139.423 101.747H122.614C122.057 101.747 121.606 101.295 121.606 100.738C121.606 100.18 122.057 99.7284 122.614 99.7284H139.423C139.98 99.7284 140.431 100.18 140.431 100.738C140.431 101.295 139.98 101.747 139.423 101.747Z" fill="#DFEFED"></path><path d="M136.359 114.687H119.549C118.993 114.687 118.541 114.236 118.541 113.678C118.541 113.121 118.993 112.669 119.549 112.669H136.359C136.915 112.669 137.367 113.121 137.367 113.678C137.367 114.236 136.915 114.687 136.359 114.687Z" fill="#DFEFED"></path><path d="M133.771 125.616H116.961C116.405 125.616 115.953 125.164 115.953 124.607C115.953 124.049 116.405 123.597 116.961 123.597H133.771C134.327 123.597 134.779 124.049 134.779 124.607C134.779 125.164 134.327 125.616 133.771 125.616Z" fill="#DFEFED"></path><path d="M131.018 136.903H114.288C113.732 136.903 113.28 136.451 113.28 135.894C113.28 135.337 113.732 134.885 114.288 134.885H131.018C131.575 134.885 132.026 135.337 132.026 135.894C132.026 136.451 131.575 136.903 131.018 136.903Z" fill="#DFEFED"></path><path d="M128.346 148.872H111.454C110.897 148.872 110.446 148.421 110.446 147.863C110.446 147.306 110.897 146.854 111.454 146.854H128.346C128.903 146.854 129.354 147.306 129.354 147.863C129.354 148.421 128.903 148.872 128.346 148.872Z" fill="#DFEFED"></path><path d="M141.96 90.4834H125.366C124.809 90.4834 124.358 90.0313 124.358 89.4742C124.358 88.9166 124.809 88.465 125.366 88.465H141.96C142.517 88.465 142.968 88.9166 142.968 89.4742C142.968 90.0313 142.517 90.4834 141.96 90.4834Z" fill="#DFEFED"></path><path d="M144.724 79.2136H128.717C128.16 79.2136 127.709 78.762 127.709 78.2044C127.709 77.6474 128.16 77.1952 128.717 77.1952H144.724C145.281 77.1952 145.732 77.6474 145.732 78.2044C145.732 78.762 145.281 79.2136 144.724 79.2136Z" fill="#DFEFED"></path><path d="M147.309 67.4365C146.766 67.3093 146.224 67.6439 146.096 68.1858L123.375 164.131C123.247 164.674 123.581 165.218 124.123 165.346C124.201 165.365 124.279 165.373 124.356 165.373C124.813 165.373 125.226 165.061 125.337 164.597L148.057 68.6515C148.186 68.1091 147.851 67.5651 147.309 67.4365Z" fill="#DFEFED"></path><path d="M130.499 67.4365C129.956 67.3093 129.414 67.6439 129.286 68.1858L106.565 164.131C106.437 164.674 106.772 165.218 107.313 165.346C107.391 165.365 107.47 165.373 107.547 165.373C108.003 165.373 108.416 165.061 108.527 164.597L131.248 68.6515C131.376 68.1091 131.041 67.5651 130.499 67.4365Z" fill="#DFEFED"></path><path d="M252.262 120.843C252.262 120.843 254.171 114.956 256.691 114.62C259.211 114.283 258.875 107.976 259.547 106.209C260.219 104.443 262.655 104.528 264.251 104.023C265.846 103.518 266.771 102.173 267.779 104.023C268.787 105.873 265.846 109.237 266.938 110.919C268.031 112.601 267.694 114.451 265.594 116.133C263.495 117.815 267.385 121.014 264.012 123.493C260.639 125.973 259.84 127.564 259.547 129.673C259.253 131.782 256.187 137.494 254.507 137.831C252.827 138.167 252.262 137.831 252.262 137.831V120.843Z" fill="#678742"></path><path d="M263.411 109.948C263.411 109.948 260.303 120.422 256.691 124.375C253.079 128.328 252.262 128.916 252.262 128.916V129.673C252.262 129.673 255.515 127.483 258.98 121.955C262.445 116.427 263.411 109.948 263.411 109.948Z" fill="#37664A"></path><path d="M252.262 162.017C252.262 162.017 258.959 156.081 258.707 151.623C258.455 147.166 257.279 146.493 260.303 144.475C263.326 142.456 265.511 139.597 264.334 137.242C263.159 134.888 260.975 132.953 262.235 130.599C263.495 128.244 265.342 126.982 264.251 124.039C263.159 121.095 260.555 121.432 259.715 124.039C258.875 126.646 259.631 127.066 257.615 127.823C255.599 128.58 255.011 131.019 255.011 132.785C255.011 134.551 252.262 136.149 252.262 136.149V162.017Z" fill="#99B746"></path><path d="M259.547 129.673C259.547 129.673 257.363 139.429 255.431 142.961C253.499 146.493 252.262 147.514 252.262 147.514V149.906C252.262 149.906 255.431 145.785 257.111 141.009C258.791 136.233 259.547 129.673 259.547 129.673Z" fill="#678742"></path><path d="M103.503 161.134V162.899C103.503 163.302 103.237 163.628 102.907 163.628H82.0785C81.7496 163.628 81.4824 163.302 81.4824 162.899V161.134C81.4824 160.732 81.7496 160.405 82.0785 160.405H102.907C103.237 160.405 103.503 160.732 103.503 161.134Z" fill="#FFAF5F"></path><path d="M84.0903 163.628H88.833V160.405H84.0903V163.628Z" fill="#FFDF8F"></path><path d="M90.3308 163.628H92.7021V160.405H90.3308V163.628Z" fill="#FFDF8F"></path><path d="M102.907 163.628H82.0785C81.7496 163.628 81.4824 163.302 81.4824 162.899V162.798H84.0905V163.628H88.8332V162.798H90.3309V163.628H92.7022V162.798H103.503V162.899C103.503 163.302 103.237 163.628 102.907 163.628Z" fill="#F98148"></path><path d="M84.0903 163.628H88.833V162.798H84.0903V163.628Z" fill="#F99057"></path><path d="M90.3308 163.628H92.7021V162.798H90.3308V163.628Z" fill="#F99057"></path><path d="M97.0147 157.911V159.676C97.0147 160.079 96.7481 160.405 96.4185 160.405H75.5898C75.2608 160.405 74.9937 160.079 74.9937 159.676V157.911C74.9937 157.509 75.2608 157.182 75.5898 157.182H96.4185C96.7481 157.182 97.0147 157.509 97.0147 157.911Z" fill="#FFAF5F"></path><path d="M77.6018 160.405H82.3443V157.182H77.6018V160.405Z" fill="#FFDF8F"></path><path d="M83.842 160.405H86.2133V157.182H83.842V160.405Z" fill="#FFDF8F"></path><path d="M96.4185 160.405H75.5898C75.2608 160.405 74.9937 160.079 74.9937 159.676V159.576H77.6019V160.405H82.3444V159.576H83.8422V160.405H86.2134V159.576H97.0147V159.676C97.0147 160.079 96.7481 160.405 96.4185 160.405Z" fill="#F98148"></path><path d="M77.6018 160.405H82.3443V159.576H77.6018V160.405Z" fill="#F99057"></path><path d="M83.842 160.405H86.2133V159.576H83.842V160.405Z" fill="#F99057"></path><path d="M100.48 154.688V156.454C100.48 156.856 100.213 157.182 99.8833 157.182H79.0546C78.7257 157.182 78.4585 156.856 78.4585 156.454V154.688C78.4585 154.286 78.7257 153.959 79.0546 153.959H99.8833C100.213 153.959 100.48 154.286 100.48 154.688Z" fill="#FFAF5F"></path><path d="M81.0667 157.182H85.8093V153.959H81.0667V157.182Z" fill="#FFDF8F"></path><path d="M87.3069 157.182H89.6781V153.959H87.3069V157.182Z" fill="#FFDF8F"></path><path d="M99.8833 157.182H79.0546C78.7257 157.182 78.4585 156.856 78.4585 156.454V156.353H81.0666V157.182H85.8093V156.353H87.307V157.182H89.6783V156.353H100.48V156.454C100.48 156.856 100.213 157.182 99.8833 157.182Z" fill="#F98148"></path><path d="M81.0667 157.182H85.8093V156.353H81.0667V157.182Z" fill="#F99057"></path><path d="M87.3069 157.182H89.6781V156.353H87.3069V157.182Z" fill="#F99057"></path><path d="M103.088 151.465V153.231C103.088 153.633 102.821 153.959 102.492 153.959H81.663C81.3338 153.959 81.0667 153.633 81.0667 153.231V151.465C81.0667 151.063 81.3338 150.737 81.663 150.737H102.492C102.821 150.737 103.088 151.063 103.088 151.465Z" fill="#FFAF5F"></path><path d="M83.6748 153.959H88.4175V150.737H83.6748V153.959Z" fill="#FFDF8F"></path><path d="M89.915 153.959H92.2865V150.737H89.915V153.959Z" fill="#FFDF8F"></path><path d="M102.492 153.959H81.663C81.3338 153.959 81.0667 153.633 81.0667 153.231V153.129H83.6749V153.959H88.4176V153.129H89.9152V153.959H92.2866V153.129H103.088V153.231C103.088 153.633 102.821 153.959 102.492 153.959Z" fill="#F98148"></path><path d="M83.6748 153.959H88.4175V153.129H83.6748V153.959Z" fill="#F99057"></path><path d="M89.915 153.959H92.2865V153.129H89.915V153.959Z" fill="#F99057"></path><path d="M100.48 148.242V150.008C100.48 150.41 100.213 150.737 99.8833 150.737H79.0546C78.7257 150.737 78.4585 150.41 78.4585 150.008V148.242C78.4585 147.84 78.7257 147.514 79.0546 147.514H99.8833C100.213 147.514 100.48 147.84 100.48 148.242Z" fill="#FFAF5F"></path><path d="M81.0667 150.737H85.8093V147.514H81.0667V150.737Z" fill="#FFDF8F"></path><path d="M87.3069 150.737H89.6781V147.514H87.3069V150.737Z" fill="#FFDF8F"></path><path d="M99.8833 150.737H89.6783V149.907H100.48V150.008C100.48 150.41 100.213 150.737 99.8833 150.737ZM87.307 150.737H85.8093V149.907H87.307V150.737ZM81.0666 150.737H79.0546C78.7257 150.737 78.4585 150.41 78.4585 150.008V149.907H81.0666V150.737Z" fill="#F98148"></path><path d="M85.8094 150.737H81.0667V149.907H85.8094V150.737Z" fill="#F99057"></path><path d="M89.6781 150.737H87.3069V149.907H89.6781V150.737Z" fill="#F99057"></path><path d="M229.858 157.911V159.676C229.858 160.079 229.554 160.405 229.178 160.405H205.419C205.044 160.405 204.74 160.079 204.74 159.676V157.911C204.74 157.509 205.044 157.182 205.419 157.182H229.178C229.554 157.182 229.858 157.509 229.858 157.911Z" fill="#FFAF5F"></path><path d="M207.714 160.405H213.124V157.182H207.714V160.405Z" fill="#FFDF8F"></path><path d="M214.833 160.405H217.537V157.182H214.833V160.405Z" fill="#FFDF8F"></path><path d="M229.178 160.405H205.419C205.044 160.405 204.74 160.079 204.74 159.676V159.576H207.714V160.405H213.124V159.576H214.833V160.405H217.537V159.576H229.858V159.676C229.858 160.079 229.554 160.405 229.178 160.405Z" fill="#F98148"></path><path d="M207.714 160.405H213.124V159.576H207.714V160.405Z" fill="#F99057"></path><path d="M214.833 160.405H217.537V159.576H214.833V160.405Z" fill="#F99057"></path><path d="M226.883 161.134V162.899C226.883 163.302 226.579 163.628 226.203 163.628H202.444C202.069 163.628 201.764 163.302 201.764 162.899V161.134C201.764 160.732 202.069 160.405 202.444 160.405H226.203C226.579 160.405 226.883 160.732 226.883 161.134Z" fill="#FFAF5F"></path><path d="M204.74 163.628H210.149V160.405H204.74V163.628Z" fill="#FFDF8F"></path><path d="M211.858 163.628H214.562V160.405H211.858V163.628Z" fill="#FFDF8F"></path><path d="M226.203 163.628H202.444C202.069 163.628 201.764 163.302 201.764 162.899V162.798H204.739V163.628H210.149V162.798H211.858V163.628H214.562V162.798H226.883V162.899C226.883 163.302 226.579 163.628 226.203 163.628Z" fill="#F98148"></path><path d="M204.74 163.628H210.149V162.798H204.74V163.628Z" fill="#F99057"></path><path d="M211.858 163.628H214.562V162.798H211.858V163.628Z" fill="#F99057"></path><path d="M227.653 154.688V156.454C227.653 156.856 227.349 157.182 226.973 157.182H203.215C202.839 157.182 202.534 156.856 202.534 156.454V154.688C202.534 154.286 202.839 153.959 203.215 153.959H226.973C227.349 153.959 227.653 154.286 227.653 154.688Z" fill="#FFAF5F"></path><path d="M205.51 157.182H210.919V153.959H205.51V157.182Z" fill="#FFDF8F"></path><path d="M212.628 157.182H215.333V153.959H212.628V157.182Z" fill="#FFDF8F"></path><path d="M226.973 157.182H203.215C202.839 157.182 202.534 156.856 202.534 156.454V156.353H205.509V157.182H210.919V156.353H212.628V157.182H215.332V156.353H227.653V156.454C227.653 156.856 227.349 157.182 226.973 157.182Z" fill="#F98148"></path><path d="M205.51 157.182H210.919V156.353H205.51V157.182Z" fill="#F99057"></path><path d="M212.628 157.182H215.333V156.353H212.628V157.182Z" fill="#F99057"></path><path d="M228.913 151.465V153.231C228.913 153.633 228.609 153.959 228.233 153.959H204.475C204.099 153.959 203.794 153.633 203.794 153.231V151.465C203.794 151.063 204.099 150.737 204.475 150.737H228.233C228.609 150.737 228.913 151.063 228.913 151.465Z" fill="#FFAF5F"></path><path d="M206.77 153.959H212.179V150.737H206.77V153.959Z" fill="#FFDF8F"></path><path d="M213.887 153.959H216.592V150.737H213.887V153.959Z" fill="#FFDF8F"></path><path d="M228.233 153.959H204.475C204.099 153.959 203.794 153.633 203.794 153.231V153.129H206.769V153.959H212.179V153.129H213.888V153.959H216.592V153.129H228.913V153.231C228.913 153.633 228.609 153.959 228.233 153.959Z" fill="#F98148"></path><path d="M206.77 153.959H212.179V153.129H206.77V153.959Z" fill="#F99057"></path><path d="M213.887 153.959H216.592V153.129H213.887V153.959Z" fill="#F99057"></path><path d="M224.167 148.242V150.008C224.167 150.41 223.863 150.737 223.487 150.737H199.729C199.353 150.737 199.049 150.41 199.049 150.008V148.242C199.049 147.84 199.353 147.514 199.729 147.514H223.487C223.863 147.514 224.167 147.84 224.167 148.242Z" fill="#FFAF5F"></path><path d="M202.024 150.737H207.434V147.514H202.024V150.737Z" fill="#FFDF8F"></path><path d="M209.142 150.737H211.846V147.514H209.142V150.737Z" fill="#FFDF8F"></path><path d="M223.487 150.737H211.847V149.907H224.167V150.008C224.167 150.41 223.863 150.737 223.487 150.737ZM209.142 150.737H207.434V149.907H209.142V150.737ZM202.024 150.737H199.729C199.353 150.737 199.049 150.41 199.049 150.008V149.907H202.024V150.737Z" fill="#F98148"></path><path d="M207.434 150.737H202.024V149.907H207.434V150.737Z" fill="#F99057"></path><path d="M209.142 150.737H211.846V149.907H209.142V150.737Z" fill="#F99057"></path><path d="M154.97 165.878H74.9937C74.7156 165.878 74.4897 165.652 74.4897 165.373C74.4897 165.095 74.7156 164.869 74.9937 164.869H154.97C155.249 164.869 155.474 165.095 155.474 165.373C155.474 165.652 155.249 165.878 154.97 165.878Z" fill="#6F95AA"></path><path d="M216.354 165.878H161.366C161.088 165.878 160.862 165.652 160.862 165.373C160.862 165.095 161.088 164.869 161.366 164.869H216.354C216.632 164.869 216.858 165.095 216.858 165.373C216.858 165.652 216.632 165.878 216.354 165.878Z" fill="#6F95AA"></path><path d="M188.86 170.041H106.538C106.259 170.041 106.034 169.815 106.034 169.536C106.034 169.258 106.259 169.032 106.538 169.032H188.86C189.138 169.032 189.364 169.258 189.364 169.536C189.364 169.815 189.138 170.041 188.86 170.041Z" fill="#6F95AA"></path><path d="M249.215 170.041H204.729C204.45 170.041 204.225 169.815 204.225 169.536C204.225 169.258 204.45 169.032 204.729 169.032H249.215C249.494 169.032 249.719 169.258 249.719 169.536C249.719 169.815 249.494 170.041 249.215 170.041Z" fill="#6F95AA"></path><path d="M164.475 44.5617H167.883C168.652 44.5617 169.138 45.3892 168.764 46.0618L157.203 66.838C157.026 67.1574 156.689 67.3557 156.323 67.3557H152.762C151.99 67.3557 151.505 66.5231 151.884 65.8505L163.598 45.0748C163.776 44.7579 164.112 44.5617 164.475 44.5617Z" fill="#702836"></path><path d="M141.732 26.9578C141.732 26.9578 140.649 33.8859 140.442 34.2189C140.231 34.557 134.435 41.4851 134.435 41.4851L132.631 39.0984L136.073 33.9666C136.073 33.9666 137.035 33.0584 137.776 32.3217C138.134 31.9584 138.441 31.6405 138.552 31.4891C138.885 31.0249 139.853 28.8097 140.609 28.2042C140.699 28.1335 140.78 28.0629 140.861 27.9922V27.9872C141.445 27.4624 141.732 26.9578 141.732 26.9578Z" fill="#FFB2A8"></path><path d="M141.732 26.9578C141.732 26.9578 140.649 33.8859 140.442 34.2189C140.231 34.557 134.435 41.4851 134.435 41.4851L132.631 39.0984L136.073 33.9666C136.073 33.9666 137.035 33.0584 137.776 32.3217C137.822 33.7497 137.897 35.2281 138.003 35.2281C138.215 35.1878 138.845 34.3451 138.885 33.9263C138.92 33.6185 139.641 30.3235 140.861 27.9922V27.9872C141.445 27.4624 141.732 26.9578 141.732 26.9578Z" fill="#F26173"></path><path d="M169.586 29.8955C172.391 37.9771 168.122 46.806 160.05 49.6151C151.979 52.4241 143.161 48.1497 140.355 40.0681C137.549 31.9865 141.819 23.1576 149.89 20.3486C157.962 17.5395 166.78 21.8139 169.586 29.8955Z" fill="#FFAF5F"></path><path d="M165.266 31.3987C167.242 37.0916 164.236 43.3112 158.549 45.2902C152.863 47.2692 146.651 44.2578 144.675 38.565C142.699 32.8721 145.705 26.652 151.391 24.6735C157.078 22.6945 163.29 25.7059 165.266 31.3987Z" fill="white"></path><path d="M158.548 45.2902C152.863 47.2692 146.651 44.2578 144.675 38.565C142.698 32.8721 145.705 26.652 151.391 24.6735C157.078 22.6945 163.289 25.7059 165.266 31.3987C167.242 37.0916 164.235 43.3112 158.548 45.2902ZM151.108 23.8576C144.972 25.993 141.726 32.7041 143.859 38.8486C145.992 44.9925 152.696 48.2416 158.832 46.1062C164.969 43.9707 168.214 37.2591 166.081 31.1146C163.948 24.9707 157.245 21.7221 151.108 23.8576Z" fill="#F76D3E"></path><path d="M165.266 31.3987C167.242 37.0916 164.236 43.3112 158.549 45.2902C152.863 47.2692 146.651 44.2578 144.675 38.565C142.699 32.8721 145.705 26.652 151.391 24.6735C157.078 22.6945 163.29 25.7059 165.266 31.3987Z" fill="#FFE3AB"></path><path d="M156.194 38.5065C151.695 40.0722 146.867 38.5135 144.068 34.9743C144.068 36.1651 144.262 37.3762 144.675 38.565C146.651 44.2578 152.863 47.2692 158.549 45.2902C164.235 43.3112 167.242 37.0916 165.266 31.3987C164.853 30.2104 164.256 29.1392 163.517 28.2057C163.514 32.7198 160.693 36.9407 156.194 38.5065Z" fill="#FFAF5F"></path><path d="M157.763 36.4871C157.698 36.2989 157.607 36.1455 157.491 36.0274C157.375 35.9093 157.238 35.8165 157.078 35.7499C156.919 35.6828 156.744 35.6384 156.553 35.6156C156.362 35.5929 156.158 35.5834 155.942 35.5859L156.739 38.6957C157.24 38.4434 157.576 38.128 157.747 37.7486C157.918 37.3691 157.924 36.9488 157.763 36.4871ZM152.46 32.8747C152.526 33.0639 152.616 33.2188 152.73 33.3404C152.845 33.462 152.979 33.5584 153.134 33.6296C153.29 33.7007 153.461 33.7522 153.65 33.784C153.839 33.8153 154.039 33.8334 154.252 33.837L153.526 31.0011C153.265 31.1313 153.053 31.2706 152.888 31.4194C152.723 31.5688 152.6 31.7247 152.517 31.8872C152.434 32.0492 152.39 32.2137 152.384 32.3797C152.378 32.5462 152.403 32.7112 152.46 32.8747ZM155.997 40.6389C155.39 40.7615 154.79 40.7918 154.2 40.7307C153.609 40.6692 153.074 40.5243 152.595 40.2963L152.868 39.2578C152.891 39.166 152.936 39.0822 153.002 39.0065C153.067 38.9308 153.144 38.8774 153.234 38.8466C153.342 38.8087 153.473 38.8067 153.623 38.8405C153.773 38.8743 153.946 38.9157 154.141 38.9646C154.336 39.0136 154.553 39.055 154.792 39.0883C155.031 39.1216 155.298 39.1155 155.593 39.0681L154.718 35.6353C154.332 35.6585 153.943 35.6626 153.552 35.6479C153.161 35.6333 152.789 35.5632 152.437 35.437C152.086 35.3114 151.766 35.1085 151.48 34.8285C151.194 34.5484 150.963 34.1548 150.787 33.6467C150.655 33.2683 150.602 32.8722 150.629 32.4589C150.654 32.0451 150.762 31.6465 150.951 31.2625C151.14 30.879 151.412 30.5213 151.77 30.1908C152.127 29.8597 152.578 29.5994 153.123 29.4096L152.876 28.4332C152.845 28.3101 152.857 28.1845 152.913 28.0583C152.969 27.9322 153.068 27.8439 153.212 27.7939L153.889 27.5583L154.27 29.066C154.825 28.9676 155.33 28.9585 155.786 29.0388C156.241 29.1195 156.657 29.2446 157.033 29.4142L156.821 30.2468C156.787 30.3699 156.743 30.4688 156.691 30.5425C156.639 30.6161 156.563 30.6701 156.464 30.7049C156.39 30.7307 156.294 30.7377 156.176 30.7256C156.058 30.714 155.921 30.6979 155.767 30.6762C155.612 30.655 155.444 30.6373 155.261 30.6227C155.078 30.6086 154.883 30.6131 154.674 30.6353L155.484 33.8092C155.878 33.7941 156.274 33.7915 156.669 33.8016C157.063 33.8112 157.437 33.8723 157.79 33.9828C158.142 34.0938 158.459 34.2744 158.74 34.5242C159.021 34.774 159.243 35.1317 159.404 35.5985C159.565 36.0597 159.638 36.5194 159.625 36.9775C159.611 37.4352 159.512 37.8712 159.324 38.2839C159.137 38.6962 158.862 39.0746 158.498 39.4183C158.134 39.7619 157.681 40.05 157.14 40.2826L157.43 41.4079C157.46 41.526 157.447 41.6481 157.391 41.7762C157.336 41.9039 157.236 41.9927 157.093 42.0432L156.416 42.2783L155.997 40.6389Z" fill="#F76D3E"></path><path d="M131.285 30.7094C131.285 30.7094 131.264 29.3218 130.445 29.343C129.626 29.3642 129.395 30.1418 128.828 29.8264C128.261 29.511 126.918 30.2679 127.295 31.5294C127.673 32.7909 125.993 33.1486 127.064 33.9686C128.135 34.7886 129.353 34.3259 129.353 34.3259C129.353 34.3259 128.975 36.8488 129.899 37.963C130.823 39.0776 131.747 38.8884 131.747 38.8884C131.747 38.8884 131.915 39.6453 132.608 39.4137C133.301 39.1826 135.821 36.26 136.199 34.5782C136.577 32.8964 136.325 31.8872 136.325 31.8872C136.325 31.8872 136.43 31.3195 135.779 30.6464C135.128 29.9737 133.973 29.3218 131.285 30.7094Z" fill="#231547"></path><path d="M134.309 41.1799C134.309 41.1799 134.729 38.9092 134.918 38.4889C135.107 38.0686 135.482 37.9616 136.388 37.627C136.91 37.4338 137.254 37.459 137.181 36.1249C137.049 33.7013 136.304 31.9922 136.304 31.9922C136.304 31.9922 134.918 33.611 134.225 33.6953C133.532 33.7795 133.847 34.9355 133.469 34.8518C133.091 34.7675 132.649 34.2417 132.418 35.209C132.188 36.1763 132.713 36.5548 133.301 36.744C133.889 36.9332 133.637 38.3628 132.86 38.6569C132.083 38.9516 131.747 38.8885 131.747 38.8885C131.747 38.8885 131.768 40.1919 131.495 40.2969C131.222 40.4023 130.571 41.0538 131.726 41.3272C132.881 41.6007 134.246 41.4953 134.309 41.1799Z" fill="#FFB2A8"></path><path d="M128.624 94.8722C128.624 94.8722 128.766 96.1307 129.404 96.6635C130.043 97.1959 132.773 98.0123 133.128 98.687C133.482 99.3616 132.525 99.9651 132.525 99.9651H125.823C125.823 99.9651 124.901 99.3263 125.184 98.1546C125.468 96.9829 125.893 94.8722 125.893 94.8722H128.624Z" fill="#231547"></path><path d="M131.821 95.4414C131.821 95.4414 131.947 96.5591 132.514 97.0324C133.081 97.5052 135.506 98.2308 135.821 98.8297C136.136 99.4292 135.286 99.9651 135.286 99.9651H129.332C129.332 99.9651 128.513 99.3974 128.765 98.3569C129.017 97.316 129.395 95.4414 129.395 95.4414H131.821Z" fill="#231547"></path><path d="M134.404 77.7605C134.248 78.805 132.988 96.0571 132.353 96.3094C131.728 96.5617 130.877 96.4003 130.499 96.3094C130.121 96.2136 129.047 95.9613 129.017 95.709C129.007 95.6232 129.002 95.5374 129.002 95.4466V95.4415C129.002 95.2649 129.017 95.1085 129.017 95.1085C129.017 95.1085 127.409 95.7392 126.905 95.7392C126.401 95.7392 125.585 95.6434 125.363 95.3002C125.343 95.27 125.323 95.1388 125.298 94.9218C125.036 92.5199 124.501 79.6073 124.794 78.3963C125.111 77.0692 125.298 77.1954 125.177 76.1256C125.046 75.0508 123.473 65.3374 123.851 63.0667C124.229 60.796 124.794 58.6515 124.794 58.6515C124.794 58.6515 129.46 60.4176 130.781 60.4176C132.101 60.4176 133.961 59.1561 133.961 59.1561C133.961 59.1561 134.561 76.7211 134.404 77.7605Z" fill="#41277A"></path><path d="M154.468 50.8606C154.09 50.9564 151.384 50.6739 150.814 50.8606C150.245 51.0523 144.766 52.662 143.663 52.2482C142.856 51.9505 140.306 50.4468 138.608 49.2862C137.983 48.8573 137.474 48.4738 137.207 48.2114C136.199 47.2325 138.008 43.8972 138.94 44.6793C138.94 44.6793 139.459 45.1183 140.19 45.7339C141.899 47.1619 144.766 49.5385 144.988 49.5638C145.301 49.5991 146.596 49.6849 148.012 49.5638C149.428 49.4427 150.245 50.0633 151.001 49.5638C151.756 49.0642 152.578 48.716 152.608 49.1298C152.643 49.5385 151.888 50.0431 152.26 50.1037C152.643 50.1693 154.372 50.0078 155.254 49.917C156.136 49.8211 154.846 50.7647 154.468 50.8606Z" fill="#FFB2A8"></path><path d="M140.19 45.7338L138.608 49.2861C137.983 48.8572 137.474 48.4737 137.207 48.2113C136.199 47.2324 138.008 43.8971 138.94 44.6792C138.94 44.6792 139.459 45.1182 140.19 45.7338Z" fill="#F26173"></path><path d="M131.821 40.0133C131.821 40.0133 132.136 40.7384 132.797 40.8645C133.459 40.9907 134.026 40.7384 134.372 40.8645C134.719 40.9907 137.868 42.1578 138.53 42.8829C139.191 43.6085 140.01 44.8382 140.042 45.1223C140.073 45.4059 139.034 46.2258 138.53 47.456C138.026 48.6857 137.774 49.6949 137.491 49.6636C137.207 49.6318 136.829 49.2852 136.829 49.2852C136.829 49.2852 135.475 54.0788 135.034 55.1824C134.593 56.2864 134.341 58.5884 134.341 59.093C134.341 59.5976 134.561 60.134 134.183 60.2914C133.805 60.4494 131.38 60.8909 130.309 60.8909C129.238 60.8909 124.859 59.2192 124.796 58.6515C124.733 58.0838 126.056 50.8303 126.403 49.6636C126.749 48.4965 127.915 45.3115 128.198 44.1762C128.482 43.0408 129.269 41.4322 129.836 40.5491C130.403 39.6661 131.726 39.3194 131.726 39.3194L131.821 40.0133Z" fill="#DFEFED"></path><path d="M136.829 49.2851L134.624 47.4242L136.131 51.7026L136.829 49.2851Z" fill="#A6C0D1"></path><path d="M128.826 77.5486C129.017 78.6486 129.017 95.1085 129.017 95.1085C129.017 95.1085 127.41 95.7393 126.906 95.7393C126.402 95.7393 125.585 95.6434 125.363 95.3003C125.343 95.27 125.323 95.1388 125.298 94.9218C126.054 94.8663 126.729 94.8007 127.001 94.7301C127.757 94.5434 127.757 79.1532 127.818 78.2046C127.883 77.256 127.062 77.1954 127.445 76.4385C127.808 75.7069 126.528 65.07 126.442 64.3636C126.573 65.075 128.644 76.4839 128.826 77.5486Z" fill="#231547"></path><path d="M129.002 95.4414C129.002 95.2648 129.017 95.1084 129.017 95.1084C129.017 95.1084 129.022 95.2396 129.002 95.4414Z" fill="white"></path><path d="M141.931 25.8216C141.931 25.8216 142.398 24.276 143.204 23.8663C144.01 23.456 144.987 23.2668 145.365 23.8663C145.743 24.4652 144.955 26.2944 143.884 26.4523C142.813 26.6098 141.376 27.0387 141.931 25.8216Z" fill="#FFB2A8"></path></g><defs><clipPath id="clip0_56_1103"><rect width="330" height="170" fill="white"></rect></clipPath></defs></svg>