<svg xmlns="http://www.w3.org/2000/svg" width="330" height="170" viewBox="0 0 330 170" fill="none"><path d="M117.185 50.8518H82.4094C82.4094 50.8518 84.1351 46.0403 89.3632 48.8418C89.915 46.5712 92.5366 47.0035 92.5366 47.0035C92.9826 36.5322 107.954 34.982 109.114 46.7332C114.118 41.3261 119.774 45.5303 117.185 50.8518Z" fill="#E5E3E1"></path><path d="M85.1453 82.6177H39.0358C39.0358 82.6177 40.0872 73.6477 49.587 77.0722C50.3123 72.4585 54.0832 71.9178 55.0983 73.2872C57.9627 64.1318 70.0732 59.3013 75.5844 72.9267C81.2408 69.1784 84.476 76.1344 81.6258 80.208C87.5863 77.3967 85.1453 82.6177 85.1453 82.6177Z" fill="#E5E3E1"></path><path d="M285.76 137.159C285.76 137.159 288.131 137.181 289.12 133.683C290.108 130.185 292.677 133.328 294.949 130.578C297.222 127.827 299.198 124.88 299.495 126.845C299.791 128.81 299.198 137.945 296.728 140.793C294.258 143.642 298.012 147.669 295.147 149.928C292.282 152.187 289.614 150.714 288.626 152.974C287.637 155.232 277.164 161.716 270.643 158.081C264.122 154.447 279.14 137.257 285.76 137.159" fill="#678742"></path><path d="M269.062 148.695C269.062 148.695 265.9 140.4 268.469 138.632C271.038 136.864 272.421 136.149 272.224 132.823C272.026 129.497 274.066 128.515 277.245 128.024C280.425 127.533 277.759 122.523 281.513 121.443C285.266 120.362 284.772 122.228 286.847 119.085C288.922 115.942 290.206 114.075 291.985 118.201C293.763 122.326 294.257 126.747 290.602 128.907C286.946 131.069 287.045 133.131 288.725 136.176C290.404 139.221 287.539 144.041 284.08 144.578C280.623 145.115 277.46 146.294 278.547 150.419C279.635 154.545 273.459 159.26 269.927 157.099C266.394 154.938 269.062 148.695 269.062 148.695" fill="#99B746"></path><path d="M269.927 152.188L269.892 152.185C269.729 152.166 269.613 152.02 269.632 151.859C269.645 151.755 270.94 141.454 277.988 136.797C284.823 132.282 286.931 122.464 286.952 122.365C286.985 122.205 287.145 122.1 287.302 122.137C287.463 122.17 287.566 122.326 287.532 122.485C287.511 122.586 285.352 132.64 278.316 137.288C271.5 141.792 270.233 151.827 270.221 151.927C270.203 152.078 270.075 152.188 269.927 152.188Z" fill="#678742"></path><path d="M37.0233 150.676C37.0233 150.676 32.1816 139.782 39.2957 134.826C46.4098 129.87 50.8561 133.799 50.8561 133.799C50.8561 133.799 50.9549 128.396 54.2156 128.789C57.4762 129.183 57.8714 132.031 57.8714 132.031C57.8714 132.031 62.5155 122.798 67.357 123.583C72.1982 124.369 73.3839 131.441 73.3839 131.441C73.3839 131.441 78.6541 121.565 87.032 125.776C95.4098 129.988 92.7501 137.106 92.7501 137.106C92.7501 137.106 97.1966 135.665 99.3702 140.479C101.544 145.291 95.1215 154.747 95.1215 154.747H34.2567C34.2567 154.747 33.071 148.594 37.0233 150.676" fill="#99B746"></path><path d="M32.6755 158.746H96.8431C96.8431 158.746 99.3702 147.974 95.6653 145.602C91.9599 143.228 88.8482 147.141 88.8482 147.141C88.8482 147.141 89.49 143.622 86.9209 141.952C84.3518 140.282 81.0911 142.541 81.0911 142.541C81.0911 142.541 81.4865 135.567 75.9529 134.88C70.42 134.192 67.7524 140.38 67.7524 140.38C67.7524 140.38 65.183 134.585 59.9465 136.156C54.7096 137.728 55.7965 145.389 55.7965 145.389C55.7965 145.389 55.2035 140.643 49.7694 143.164C44.3349 145.684 44.7301 152.444 44.7301 152.444C44.7301 152.444 45.4216 146.706 39.4932 145.41C33.5649 144.113 26.8459 151.771 32.6755 158.746" fill="#678742"></path><path d="M60.6179 158.746H101.962C101.962 158.746 103.591 151.805 101.204 150.277C98.8157 148.748 96.8109 151.269 96.8109 151.269C96.8109 151.269 97.2241 149.001 95.5694 147.926C93.9141 146.849 91.8127 148.305 91.8127 148.305C91.8127 148.305 92.0676 143.812 88.5027 143.369C84.9371 142.925 83.2187 146.913 83.2187 146.913C83.2187 146.913 81.5634 143.179 78.189 144.191C74.8152 145.204 75.5154 150.139 75.5154 150.139C75.5154 150.139 75.1331 147.083 71.6319 148.707C68.1301 150.33 68.385 154.686 68.385 154.686C68.385 154.686 68.8303 150.988 65.0108 150.153C61.1909 149.318 56.8619 154.252 60.6179 158.746" fill="#37664A"></path><path d="M181.477 91.5179L180.096 95.4902L135.164 45.5304L90.2329 95.4902L88.8456 91.5179L135.164 39.2476L181.477 91.5179Z" fill="#E2582D"></path><path d="M275.348 91.5178H181.477L175.021 84.2333L166.188 74.2616L155.754 62.4862L146.92 52.5138L138.52 43.0371L135.164 39.2476H217.901L222.069 43.0371L232.479 52.5138L243.441 62.4862L256.382 74.2616L267.344 84.2333L275.348 91.5178" fill="#F98D43"></path><path d="M180.096 95.4902H275.346V91.5166H181.477L180.096 95.4902Z" fill="#E2582D"></path><path d="M266.767 95.4901V155.9H180.096V95.4901H266.767Z" fill="#BAB4A8"></path><path d="M93.5883 91.7593V155.9H180.096V95.4901L135.164 45.5303L93.5883 91.7593" fill="#E5E3E1"></path><path d="M147.489 118.334V155.9H119.703V118.334C119.703 110.708 125.922 104.525 133.599 104.525C141.271 104.525 147.489 110.708 147.489 118.334Z" fill="#918E88"></path><path d="M133.893 104.529V155.902C133.893 156.066 133.762 156.197 133.598 156.197C133.434 156.197 133.302 156.066 133.302 155.902V104.529C133.401 104.522 133.499 104.522 133.598 104.522C133.696 104.522 133.795 104.522 133.893 104.529Z" fill="#54514C"></path><path d="M130.967 129.379V135.567C130.967 135.891 130.7 136.156 130.374 136.156C130.042 136.156 129.781 135.891 129.781 135.567V129.379C129.781 129.054 130.042 128.789 130.374 128.789C130.7 128.789 130.967 129.054 130.967 129.379Z" fill="#54514C"></path><path d="M137.115 129.379V135.567C137.115 135.891 136.848 136.156 136.521 136.156C136.196 136.156 135.929 135.891 135.929 135.567V129.379C135.929 129.054 136.196 128.789 136.521 128.789C136.848 128.789 137.115 129.054 137.115 129.379Z" fill="#54514C"></path><path d="M159.198 143.164H150.602V109.562H159.198V143.164Z" fill="#918E88"></path><path d="M169.623 143.164H161.026V109.562H169.623V143.164Z" fill="#918E88"></path><path d="M105.102 143.164H96.5049V109.562H105.102V143.164" fill="#918E88"></path><path d="M115.526 143.164H106.93V109.562H115.526V143.164Z" fill="#918E88"></path><path d="M93.5883 91.7594V95.4901L135.161 49.1272L180.096 99.616V95.4901L135.164 45.5303L93.5883 91.7594" fill="#BAB4A8"></path><path d="M261.117 95.4901V99.616H180.096V95.4901H261.117Z" fill="#918E88"></path><path d="M190.569 95.4901V155.9H250.273V95.4901H190.569Z" fill="#918E88"></path><path d="M264.576 157.079V157.568C264.576 158.222 264.042 158.746 263.39 158.746H89.3967C88.7445 158.746 88.2111 158.222 88.2111 157.568V157.079C88.2111 156.431 88.7445 155.9 89.3967 155.9H263.39C264.042 155.9 264.576 156.431 264.576 157.079Z" fill="#BAB4A8"></path><path d="M222.069 43.0371H138.52L135.164 39.2476H217.901L222.069 43.0371Z" fill="#E2582D"></path><path d="M243.441 62.4861H155.754L146.92 52.5137H232.479L243.441 62.4861Z" fill="#E2582D"></path><path d="M267.344 84.2332H175.021L166.188 74.2614H256.382L267.344 84.2332" fill="#E2582D"></path><path d="M175.27 36.4544V68.5762L165.322 55.5907V32.1738L175.27 36.4544Z" fill="white"></path><path d="M186.219 36.4544V68.5762H175.27V36.4544H186.219Z" fill="#D8D5CE"></path><path d="M164.162 32.1707H177.091L187.472 36.958H175.267L164.162 32.1707" fill="#918E88"></path><path d="M187.469 36.9579V42.9214H175.27V36.9579H187.469Z" fill="#BAB4A8"></path><path d="M175.27 36.9579V42.9214L164.16 37.6893V32.1739L175.27 36.9579" fill="#D8D5CE"></path><path d="M208.146 91.5166H196.862L190.007 84.2334H201.185L208.146 91.5166" fill="#D44D38"></path><path d="M208.378 91.7595H197.091L196.862 91.5166H208.146L208.378 91.7595" fill="#C8332D"></path><path d="M191.654 74.2615H180.621L175.27 68.5762H186.219L191.654 74.2615" fill="#D44D38"></path><path d="M201.185 84.2332H190.007L180.621 74.2614H191.654L201.185 84.2332" fill="#C8332D"></path><path d="M114.118 161.391C114.118 162.851 102.05 164.035 87.1653 164.035C72.2797 164.035 60.2123 162.851 60.2123 161.391C60.2123 159.93 72.2797 158.746 87.1653 158.746C102.05 158.746 114.118 159.93 114.118 161.391Z" fill="#E5E3E1"></path><path d="M98.8269 66.8411C98.8486 66.7203 100.727 67.0442 100.949 62.9922C101.171 58.9402 97.5401 59.2719 97.5401 59.2719C97.5401 59.2719 96.6132 56.5827 93.6119 56.5827C90.6113 56.5827 89.3632 57.9828 89.3632 57.9828C89.3632 57.9828 87.585 55.7233 83.4847 58.4243C79.3838 61.1258 79.483 65.3496 81.4096 67.9036C83.3363 70.4576 82.5953 71.3411 81.6566 72.3239C80.7179 73.3061 78.6429 80.3294 86.2016 78.1189C93.7604 75.9091 93.6618 71.9413 93.3649 67.5647C93.0687 63.1887 98.8269 66.8411 98.8269 66.8411" fill="#41277A"></path><path d="M90.5712 73.1585C90.5712 73.1585 91.4139 72.6675 91.6609 71.5625C91.9079 70.4576 91.5125 68.6402 91.4632 68.1981C91.4139 67.756 90.9443 67.0932 90.9443 67.0932C90.9443 67.0932 89.3632 67.216 89.3632 65.7179C89.3632 64.2199 90.2775 63.6309 90.7466 63.8268C91.2162 64.0233 91.2405 64.5144 91.636 64.2447C92.0314 63.9744 91.5125 63.5323 91.9572 62.5749C92.4019 61.6169 94.2793 60.0451 95.3658 60.1679C96.4529 60.2906 96.6749 60.9541 96.6749 60.9541C96.6749 60.9541 98.5523 61.2734 98.9477 63.704C99.3432 66.1352 98.1818 69.8679 97.54 70.1873C96.8976 70.5066 96.5022 70.5066 96.5022 70.5066C96.5022 70.5066 96.4779 72.1516 96.6506 72.5695C96.8234 72.9868 97.5019 73.184 97.5019 73.184C97.5019 73.184 98.1076 83.1779 95.1188 81.5937C92.13 80.0101 90.5712 73.1585 90.5712 73.1585Z" fill="#FFB2A8"></path><path d="M100.21 155.375C100.282 156.076 101.023 160.019 100.803 160.496C100.578 160.974 99.6532 161.71 98.574 161.858C97.5013 162.005 94.9815 161.822 94.8337 161.157C94.768 160.861 95.1654 159.618 95.6219 158.227C96.1849 156.506 96.8372 154.568 96.7958 153.972C96.7544 153.341 96.5527 150.188 96.3984 147.725C96.292 146.027 96.2026 144.654 96.2026 144.654L101.799 144.289C101.799 144.289 101.26 146.045 100.803 147.784C100.495 148.998 100.222 150.2 100.21 150.807C100.181 151.874 100.151 153.418 100.169 154.455C100.175 154.856 100.187 155.18 100.21 155.375" fill="#FFB2A8"></path><path d="M100.803 160.496C100.578 160.974 99.6532 161.71 98.574 161.858C97.5013 162.005 94.9815 161.822 94.8337 161.157C94.768 160.861 95.1654 159.618 95.6219 158.227C95.8354 158.946 96.9856 159.724 98.1358 159.241C99.2795 158.763 98.9832 154.496 100.169 154.455C100.175 154.856 100.187 155.18 100.21 155.375C100.282 156.076 101.023 160.019 100.803 160.496Z" fill="#231547"></path><path d="M85.3122 142.998C85.3122 142.998 84.9923 144.342 84.5653 146.062C84.1863 147.572 83.7298 149.375 83.3383 150.807C82.8226 152.682 82.301 154.219 81.9864 155.422C81.7788 156.176 81.6547 156.795 81.6547 157.29C81.6547 158.569 82.4961 159.647 81.6547 160.284C80.8184 160.927 72.1693 161.71 72.0208 160.284C71.873 158.864 72.9634 158.221 74.6411 157.537C74.8842 157.438 75.139 157.296 75.4116 157.125C77.0006 156.123 78.8977 154.037 79.236 152.823C79.485 151.927 79.6742 147.719 79.7812 144.713C79.8404 142.933 79.8758 141.572 79.8758 141.572L85.3122 142.998" fill="#FFB2A8"></path><path d="M79.8758 141.572L85.3122 142.998C85.3122 142.998 84.9923 144.342 84.5653 146.062C82.8581 145.645 81.2336 145.179 79.7812 144.713C79.8404 142.933 79.8758 141.572 79.8758 141.572" fill="#F26173"></path><path d="M101.799 144.289C101.799 144.289 101.26 146.045 100.803 147.784C99.5166 147.807 98.0229 147.796 96.3984 147.725C96.292 146.027 96.2026 144.654 96.2026 144.654L101.799 144.289Z" fill="#F26173"></path><path d="M81.3426 104.714C81.3426 104.714 82.299 110.608 81.7308 110.902C81.1626 111.197 80.5944 109.527 80.3474 110.018C80.1004 110.51 79.9277 113.382 79.5322 113.579C79.1368 113.776 78.5193 113.137 78.2973 112.007C78.0746 110.878 78.4037 108.913 78.56 108.373C78.717 107.833 79.458 105.745 79.458 104.984C79.458 104.223 81.1455 103.389 81.3426 104.714" fill="#FFB2A8"></path><path d="M83.781 97.7887C83.781 97.7887 82.3976 105.279 82.1014 105.5C81.8051 105.721 79.1231 105.549 78.9326 105.058C78.7421 104.566 79.6065 97.1507 79.6065 97.1507L83.781 97.7887Z" fill="#41277A"></path><path d="M120.611 85.1671C120.611 85.1671 122.884 86.2968 123.946 86.4927C125.008 86.6893 127.454 85.8789 127.527 86.4927C127.602 87.1066 125.403 87.3528 126.045 87.7452C126.688 88.1384 127.923 88.5557 128.936 88.777C129.949 88.9978 130.196 89.0715 130.22 89.415C130.245 89.7592 128.862 92.2884 128.17 92.1656C127.478 92.0428 123.205 90.2013 122.316 89.4647C121.426 88.7274 119.772 87.9418 119.772 87.9418L120.611 85.1671" fill="#FFB2A8"></path><path d="M115.374 81.9007C115.49 82.0372 117.474 83.1291 118.734 83.8899C119.994 84.6513 121.649 85.0686 121.673 85.3638C121.698 85.6583 120.784 88.9489 120.266 89.0468C119.747 89.1454 114.238 86.7632 113.546 85.8052C112.855 84.8479 114.831 81.2627 115.374 81.9007" fill="#41277A"></path><path d="M106.507 144.106C106.358 146.169 104.284 145.285 102.428 145.945C100.578 146.605 95.6102 146.015 95.2424 145.945C94.8752 145.874 95.9065 141.006 95.9065 138.431C95.9065 135.855 96.0608 123.991 95.9065 122.371C95.7646 120.75 93.612 108.449 93.612 108.449C93.612 108.449 89.8355 122.223 89.5393 124.068C89.243 125.907 88.573 142.556 88.4962 144.177C88.443 145.421 86.6878 145.662 84.7079 145.014C84.1029 144.819 83.4749 144.542 82.864 144.177C80.2733 142.633 79.0108 143.145 78.6429 142.927C78.2757 142.703 79.2361 139.827 79.5323 135.407C79.8286 130.987 83.6819 107.783 84.6429 103.806C85.6092 99.8275 88.4962 92.46 88.4962 92.46L101.912 91.7234C101.912 91.7234 104.876 97.028 105.469 102.479C106.062 107.931 104.876 119.571 104.58 123.62C104.284 127.675 106.655 142.043 106.507 144.106" fill="#41277A"></path><path d="M114.51 85.9657C113.621 86.985 112.583 85.6823 110.728 85.2408C108.878 84.7987 103.471 81.115 103.471 81.115C103.471 81.115 103.442 81.5395 103.382 82.2173C103.317 83.0303 103.216 84.2149 103.098 85.4648C102.967 86.8433 103.317 88.6235 103.614 90.0144L103.62 90.0203V90.0262C103.815 90.9339 103.987 91.6705 103.987 92.0179C103.987 92.9021 102.06 92.7552 100.43 93.2678C98.7994 93.7863 95.7646 94.0103 93.9089 93.4206C92.9295 93.1098 91.3937 93.3932 90.0536 93.676C88.8548 93.9293 87.8117 94.1827 87.4649 94.0103C86.7173 93.6387 87.2396 91.7234 87.3873 90.3978C87.5358 89.0715 87.0911 86.6429 86.8717 86.3483L86.8303 86.3719C86.4861 87.0144 84.773 97.2931 84.275 98.2067C83.7535 99.1614 80.8665 98.7252 79.9002 98.2067C78.9392 97.6882 79.0876 95.2596 78.9392 93.2678C78.7914 91.2813 81.0852 80.6729 82.4969 77.1367C83.9072 73.6006 90.5713 73.1585 90.5713 73.1585C90.5713 73.1585 94.5789 79.4178 95.3908 79.6418C96.2027 79.8658 97.3411 73.1585 97.3411 73.1585C97.3411 73.1585 103.542 74.1132 106.139 74.9974C108.729 75.8816 115.47 81.339 115.696 82.0697C115.921 82.8122 115.399 84.9456 114.51 85.9657" fill="#FC4254"></path><path d="M86.8684 86.6404C86.7147 86.6404 86.5846 86.5222 86.5735 86.3668L86.2023 81.2836C86.1905 81.1216 86.3133 80.9806 86.4769 80.9689C86.6398 80.9591 86.7817 81.0786 86.7935 81.2412L87.164 86.3243C87.1758 86.4869 87.0536 86.628 86.8901 86.6397L86.8684 86.6404Z" fill="#BA153D"></path><path d="M103.468 81.4097C103.369 81.4097 103.271 81.3594 103.215 81.268L101.732 78.8367C101.648 78.6976 101.693 78.5161 101.832 78.4319C101.973 78.3483 102.155 78.392 102.239 78.5311L103.722 80.9623C103.807 81.1014 103.761 81.283 103.622 81.3672L103.468 81.4097" fill="#BA153D"></path><path d="M87.4648 94.0105C87.1686 93.8629 87.0714 93.473 87.072 92.9735C87.0727 92.2127 87.298 91.1979 87.3873 90.3979C87.4077 90.2138 87.4169 90.0087 87.4169 89.7913C87.4169 88.6766 87.1745 87.2321 86.984 86.6176C87.0976 86.5699 87.1738 86.4537 87.164 86.3244L86.9275 83.0743C86.9925 83.1108 87.07 83.1918 87.162 83.325C87.162 83.325 88.9468 86.8612 92.3494 87.0087C92.463 87.014 92.5734 87.0159 92.6798 87.0159C94.1742 87.0159 95.0032 86.5529 95.5655 86.0893C96.1278 85.6256 96.4234 85.162 96.8523 85.162C96.8839 85.162 96.9167 85.1646 96.9502 85.1698C97.3982 85.2358 98.1136 85.3638 98.9104 85.3638C99.8215 85.3638 100.839 85.1966 101.687 84.5808C102.624 83.9029 103.122 82.9188 103.382 82.2175C103.317 83.0305 103.216 84.2151 103.098 85.465C103.078 85.6694 103.07 85.8829 103.07 86.103C103.07 87.3633 103.361 88.83 103.614 90.0146C103.524 89.8905 102.837 88.9123 102.209 88.7771C101.975 88.7255 100.965 88.6922 99.6336 88.6922C97.1493 88.6922 93.5436 88.8085 91.7569 89.1422C89.0177 89.6607 87.4648 91.2815 87.4648 94.0105" fill="#CA2043"></path><path d="M86.984 86.6174C86.9432 86.4862 86.9045 86.3928 86.8716 86.3484L86.8303 86.3719C86.7146 85.5354 86.4217 83.0506 86.8493 83.0506C86.873 83.0506 86.8992 83.0584 86.9275 83.0741L87.1639 86.3242C87.1738 86.4535 87.0976 86.5698 86.984 86.6174" fill="#BA153D"></path><path d="M93.6119 108.449C93.6119 108.449 89.8355 122.223 89.5393 124.068C89.243 125.907 88.573 142.556 88.4961 144.177C88.4429 145.421 86.6877 145.662 84.7079 145.014C86.0236 138.212 86.5577 124.822 86.6227 124.138C86.6995 123.355 86.0532 122.665 86.6227 121.976C87.1975 121.292 91.389 107.831 91.2169 106.811C91.1756 106.587 91.0396 106.381 90.8438 106.193C90.4523 105.827 90.6835 105.178 91.2228 105.178H93.1679L93.6119 108.449" fill="#231547"></path><path d="M81.6547 160.284C80.8184 160.927 72.1693 161.71 72.0208 160.284C71.873 158.864 72.9634 158.221 74.6411 157.537C74.8842 157.438 75.139 157.296 75.4116 157.125C76.2774 157.372 77.5702 157.644 78.6606 157.508C80.3619 157.308 79.9711 155.162 81.9864 155.422C81.7788 156.176 81.6547 156.795 81.6547 157.29C81.6547 158.569 82.4961 159.647 81.6547 160.284" fill="#231547"></path><path d="M92.9827 68.7018C92.9827 68.7018 93.9089 69.7701 94.7976 70.1012C95.6871 70.4329 96.5022 70.5067 96.5022 70.5067V72.6062C96.5022 72.6062 93.3157 70.9116 92.9827 68.7018" fill="#F26173"></path><path d="M86.6246 67.2102C86.5477 67.2102 86.4729 67.1704 86.4321 67.0998C83.6273 62.2746 89.1694 57.853 89.2259 57.8092C89.3231 57.7335 89.4617 57.7498 89.5379 57.8458C89.6141 57.9418 89.5977 58.0802 89.5011 58.156C89.4479 58.1978 84.206 62.3863 86.8171 66.8785C86.8782 66.9843 86.842 67.1194 86.7356 67.1802L86.6246 67.2102Z" fill="#231547"></path><path d="M258.49 62.4861H196.754C195.303 62.4861 194.126 63.6557 194.126 65.0982V157.119C194.126 158.561 195.303 159.731 196.754 159.731H258.49C259.941 159.731 261.118 158.561 261.118 157.119V65.0982C261.118 63.6557 259.941 62.4861 258.49 62.4861" fill="#EFEFEF"></path><path d="M220.662 88.4916H203.409C202.32 88.4916 201.438 89.3686 201.438 90.4507V107.602C201.438 108.685 202.32 109.562 203.409 109.562H220.662C221.75 109.562 222.632 108.685 222.632 107.602V90.4507C222.632 89.3686 221.75 88.4916 220.662 88.4916Z" fill="white"></path><path d="M201.438 73.5366H254.646C254.973 73.5366 255.239 73.2728 255.239 72.9469C255.239 72.6217 254.973 72.3579 254.646 72.3579H201.438C201.11 72.3579 200.845 72.6217 200.845 72.9469C200.845 73.2728 201.11 73.5366 201.438 73.5366Z" fill="#BAB4A8"></path><path d="M254.646 81.051H201.438C201.11 81.051 200.845 81.3148 200.845 81.6401C200.845 81.9659 201.11 82.2297 201.438 82.2297H254.646C254.973 82.2297 255.239 81.9659 255.239 81.6401C255.239 81.3148 254.973 81.051 254.646 81.051Z" fill="#BAB4A8"></path><path d="M254.645 89.7441H228.042C227.714 89.7441 227.449 90.008 227.449 90.3332C227.449 90.659 227.714 90.9229 228.042 90.9229H254.645C254.973 90.9229 255.239 90.659 255.239 90.3332C255.239 90.008 254.973 89.7441 254.645 89.7441Z" fill="#BAB4A8"></path><path d="M254.645 98.4372H228.042C227.714 98.4372 227.449 98.7011 227.449 99.0263C227.449 99.3521 227.714 99.616 228.042 99.616H254.645C254.973 99.616 255.239 99.3521 255.239 99.0263C255.239 98.7011 254.973 98.4372 254.645 98.4372Z" fill="#BAB4A8"></path><path d="M254.645 107.13H228.042C227.714 107.13 227.449 107.394 227.449 107.719C227.449 108.045 227.714 108.309 228.042 108.309H254.645C254.973 108.309 255.239 108.045 255.239 107.719C255.239 107.394 254.973 107.13 254.645 107.13Z" fill="#BAB4A8"></path><path d="M254.646 115.823H201.438C201.11 115.823 200.845 116.087 200.845 116.413C200.845 116.738 201.11 117.002 201.438 117.002H254.646C254.973 117.002 255.239 116.738 255.239 116.413C255.239 116.087 254.973 115.823 254.646 115.823Z" fill="#BAB4A8"></path><path d="M254.646 124.517H201.438C201.11 124.517 200.845 124.78 200.845 125.106C200.845 125.431 201.11 125.695 201.438 125.695H254.646C254.973 125.695 255.239 125.431 255.239 125.106C255.239 124.78 254.973 124.517 254.646 124.517Z" fill="#BAB4A8"></path><path d="M239.973 132.473H201.438C201.11 132.473 200.845 132.736 200.845 133.062C200.845 133.388 201.11 133.652 201.438 133.652H239.973C240.3 133.652 240.566 133.388 240.566 133.062C240.566 132.736 240.3 132.473 239.973 132.473Z" fill="#BAB4A8"></path><path d="M226.122 148.635L222.838 140.016C222.724 139.716 222.389 139.562 222.085 139.669L206.911 145.018C206.593 145.129 206.433 145.481 206.558 145.792L209.972 154.277C210.09 154.569 210.418 154.718 210.718 154.614L225.762 149.4C226.078 149.291 226.24 148.945 226.122 148.635" fill="white"></path><path d="M210.858 62.4156C210.734 65.0029 210.147 66.659 209.05 67.4779C208.7 67.7371 208.35 67.8318 208.025 67.8318C207.295 67.8318 206.667 67.3485 206.412 67.1481C206.151 66.9535 206.104 66.5819 206.305 66.3227C206.506 66.0693 206.88 66.0223 207.135 66.2227C207.876 66.7883 208.125 66.6942 208.339 66.5349C209.122 65.9459 209.571 64.5431 209.673 62.362C209.732 61.0893 209.602 59.5096 208.635 59.221C208.297 59.1152 208.119 59.2033 208.001 59.2856C207.343 59.7689 207.082 61.502 207.07 62.4861H205.884V62.4802C205.884 62.1622 205.949 59.3209 207.295 58.3368C207.781 57.9894 208.362 57.9006 208.985 58.0893C210.343 58.502 210.971 59.9576 210.858 62.4156" fill="#41277A"></path><path d="M222.875 62.4156C222.756 65.0029 222.164 66.659 221.067 67.4779C220.723 67.7371 220.373 67.8318 220.047 67.8318C219.312 67.8318 218.69 67.3485 218.429 67.1481C218.168 66.9535 218.121 66.5819 218.322 66.3227C218.523 66.0693 218.897 66.0223 219.158 66.2227C219.893 66.7883 220.148 66.6942 220.355 66.5349C221.138 65.9459 221.588 64.5431 221.69 62.362C221.749 61.0893 221.618 59.5096 220.658 59.221C220.314 59.1152 220.136 59.2033 220.018 59.2856C219.36 59.7689 219.099 61.502 219.087 62.4861H217.901V62.4802C217.907 62.1622 217.966 59.3209 219.318 58.3368C219.798 57.9894 220.379 57.9006 221.002 58.0893C222.36 58.502 222.988 59.9576 222.875 62.4156" fill="#41277A"></path><path d="M234.892 62.4156C234.773 65.0029 234.187 66.659 233.09 67.4779C232.74 67.7371 232.39 67.8318 232.064 67.8318C231.329 67.8318 230.707 67.3485 230.446 67.1481C230.191 66.9535 230.143 66.5819 230.345 66.3227C230.546 66.0693 230.92 66.0223 231.175 66.2227C231.916 66.7883 232.165 66.6942 232.378 66.5349C233.161 65.9459 233.611 64.5431 233.713 62.362C233.772 61.0893 233.635 59.5096 232.675 59.221C232.337 59.1152 232.159 59.2033 232.04 59.2856C231.377 59.7689 231.116 61.502 231.11 62.4861H229.924V62.4802C229.924 62.1622 229.989 59.3209 231.335 58.3368C231.815 57.9894 232.402 57.9006 233.025 58.0893C234.382 58.502 235.011 59.9576 234.892 62.4156" fill="#41277A"></path><path d="M246.915 62.4156C246.796 65.0029 246.203 66.659 245.107 67.4779C244.763 67.7371 244.413 67.8318 244.081 67.8318C243.352 67.8318 242.724 67.3485 242.469 67.1481C242.208 66.9535 242.16 66.5819 242.362 66.3227C242.563 66.0693 242.937 66.0223 243.192 66.2227C243.933 66.7883 244.182 66.6942 244.395 66.5349C244.864 66.1816 245.213 65.5449 245.433 64.6196C245.581 64.024 245.676 63.3168 245.723 62.4861L245.729 62.362C245.789 61.0893 245.658 59.5096 244.698 59.221C244.354 59.1152 244.176 59.2033 244.057 59.2856C243.4 59.7689 243.138 61.502 243.126 62.4861H241.941V62.4802C241.947 62.1622 242.006 59.3209 243.358 58.3368C243.838 57.9894 244.419 57.9006 245.041 58.0893C246.399 58.502 247.028 59.9576 246.915 62.4156" fill="#41277A"></path><path d="M287.258 88.5067C287.258 88.7659 287.216 89.0311 287.115 89.2903L285.497 93.5866L272.366 128.406L270.819 132.508L267.243 130.976L268.66 127.063L281.383 91.9011L282.889 87.7459C283.327 86.5202 284.72 85.9311 285.918 86.4555C286.754 86.8264 287.258 87.646 287.258 88.5067" fill="#FC4254"></path><path d="M285.918 86.4556C284.72 85.9312 283.327 86.5203 282.889 87.746L281.383 91.9012L285.497 93.5867L287.115 89.2904C287.216 89.0312 287.258 88.766 287.258 88.5068C287.258 87.6461 286.754 86.8265 285.918 86.4556" fill="#41277A"></path><path d="M286.186 91.7594C286.186 91.7594 288.882 92.1741 288.981 93.5866C289.08 94.9991 281.472 112.385 280.681 112.385C279.891 112.385 281.274 107.081 282.311 104.183C283.349 101.286 286.56 93.2313 286.56 93.2313L285.79 92.8088L286.186 91.7594Z" fill="#41277A"></path><path d="M270.819 132.508L267.243 130.976L268.66 127.063L272.366 128.406L270.819 132.508" fill="#CA2043"></path><path d="M271.428 130.483L267.582 129.25C266.959 129.05 266.29 129.391 266.09 130.01L262.29 141.754C262.082 142.396 262.458 143.079 263.113 143.253L266.77 144.223C267.371 144.382 267.993 144.053 268.196 143.469L272.184 131.989C272.401 131.365 272.059 130.686 271.428 130.483Z" fill="#41277A"></path><path d="M277.396 146.212C277.396 143.669 271.805 141.608 264.909 141.608C258.013 141.608 252.423 143.669 252.423 146.212C252.423 148.755 258.013 150.817 264.909 150.817C271.805 150.817 277.396 148.755 277.396 146.212Z" fill="#634C47"></path><path d="M277.564 146.838H251.587C250.862 146.838 250.273 147.423 250.273 148.144V158.425C250.273 159.146 250.862 159.731 251.587 159.731H277.564C278.29 159.731 278.878 159.146 278.878 158.425V148.144C278.878 147.423 278.29 146.838 277.564 146.838Z" fill="#A06352"></path><path d="M181.477 164.151H42.8529C42.5255 164.151 42.2599 163.888 42.2599 163.562C42.2599 163.236 42.5255 162.972 42.8529 162.972H181.477C181.805 162.972 182.07 163.236 182.07 163.562C182.07 163.888 181.805 164.151 181.477 164.151Z" fill="#E5E3E1"></path><path d="M264.576 164.151H190.569C190.242 164.151 189.977 163.888 189.977 163.562C189.977 163.236 190.242 162.972 190.569 162.972H264.576C264.903 162.972 265.169 163.236 265.169 163.562C265.169 163.888 264.903 164.151 264.576 164.151Z" fill="#E5E3E1"></path><path d="M238.787 169.455H91.6143C91.2865 169.455 91.0211 169.192 91.0211 168.866C91.0211 168.54 91.2865 168.277 91.6143 168.277H238.787C239.115 168.277 239.38 168.54 239.38 168.866C239.38 169.192 239.115 169.455 238.787 169.455Z" fill="#E5E3E1"></path><path d="M76.0495 106.648H47.1624C47.1624 106.648 50.268 102.09 55.2883 105.553C61.9674 97.6392 69.2849 99.7041 69.2849 104.254C76.0068 100.558 76.9849 104.449 76.0495 106.648Z" fill="#E5E3E1"></path></svg>