<svg xmlns="http://www.w3.org/2000/svg" width="18" height="18" viewBox="0 0 18 18" fill="none"><g clip-path="url(#clip0_49_721)"><path d="M17.2688 11.3737L15.6713 9.77625C15.3281 9.44856 14.8718 9.26571 14.3972 9.26571C13.9227 9.26571 13.4664 9.44856 13.1232 9.77625L12.5607 10.3387C12.179 10.719 11.6622 10.9325 11.1235 10.9325C10.5848 10.9325 10.068 10.719 9.68631 10.3387C9.25318 9.90562 8.97756 9.61312 8.70193 9.32625C8.42631 9.03937 8.13943 8.73 7.68943 8.28562C7.30953 7.90493 7.09617 7.38907 7.09617 6.85125C7.09617 6.31343 7.30953 5.79757 7.68943 5.41688L8.25193 4.85438C8.41967 4.68791 8.55276 4.48986 8.64352 4.27166C8.73427 4.05346 8.78089 3.81944 8.78068 3.58312C8.77864 3.10629 8.58865 2.64951 8.25193 2.31188L6.65443 0.703125C6.20315 0.253774 5.59253 0.00103437 4.95568 0C4.64198 0.000462268 4.33146 0.0628055 4.04189 0.183459C3.75232 0.304112 3.4894 0.480706 3.26818 0.703125L1.74381 2.21625C0.645318 3.31627 0.0283203 4.8073 0.0283203 6.36188C0.0283203 7.91646 0.645318 9.40748 1.74381 10.5075C2.62131 11.385 3.62256 12.375 4.61818 13.41C5.61381 14.445 6.59256 15.4125 7.46443 16.3125C8.56422 17.4093 10.054 18.0252 11.6072 18.0252C13.1604 18.0252 14.6503 17.4093 15.7501 16.3125L17.2688 14.7937C17.7154 14.3452 17.9679 13.7392 17.9719 13.1062C17.9775 12.785 17.918 12.4659 17.7972 12.1682C17.6764 11.8705 17.4967 11.6003 17.2688 11.3737V11.3737ZM16.4194 13.9219L16.2563 14.0625L14.6251 12.4256C14.5707 12.3637 14.5043 12.3136 14.4299 12.2785C14.3554 12.2433 14.2746 12.2237 14.1923 12.2211C14.11 12.2184 14.028 12.2326 13.9514 12.2629C13.8749 12.2931 13.8053 12.3388 13.7471 12.397C13.6889 12.4552 13.6432 12.5248 13.6129 12.6014C13.5827 12.6779 13.5684 12.7599 13.5711 12.8422C13.5738 12.9245 13.5933 13.0054 13.6285 13.0798C13.6637 13.1543 13.7138 13.2207 13.7757 13.275L15.4351 14.9344L14.9288 15.4406C14.0537 16.3131 12.8683 16.803 11.6326 16.803C10.3968 16.803 9.21145 16.3131 8.33631 15.4406C7.47006 14.5744 6.48568 13.5731 5.52381 12.5719C4.56193 11.5706 3.52131 10.5413 2.64381 9.66375C1.77134 8.7886 1.28141 7.60325 1.28141 6.3675C1.28141 5.13175 1.77134 3.9464 2.64381 3.07125L3.15006 2.565L4.75318 4.21875C4.86507 4.33437 5.01831 4.4008 5.17918 4.40344C5.34005 4.40608 5.49538 4.3447 5.611 4.23281C5.72661 4.12092 5.79305 3.96769 5.79569 3.80682C5.79832 3.64595 5.73695 3.49062 5.62506 3.375L3.93756 1.6875L4.10068 1.52438C4.21154 1.41173 4.34377 1.32236 4.48962 1.26151C4.63548 1.20065 4.79202 1.16954 4.95006 1.17C5.26895 1.17096 5.57442 1.29841 5.79943 1.52438L7.40256 3.15C7.51383 3.26227 7.57646 3.41381 7.57693 3.57187C7.577 3.6502 7.56164 3.72777 7.53172 3.80016C7.5018 3.87255 7.45791 3.93833 7.40256 3.99375L6.84006 4.55625C6.23551 5.16254 5.89603 5.98381 5.89603 6.84C5.89603 7.69619 6.23551 8.51746 6.84006 9.12375C7.31256 9.5625 7.57131 9.83813 7.87506 10.125C8.17881 10.4119 8.43756 10.7213 8.88193 11.16C9.48823 11.7645 10.3095 12.104 11.1657 12.104C12.0219 12.104 12.8431 11.7645 13.4494 11.16L14.0119 10.5975C14.1268 10.4891 14.2787 10.4287 14.4366 10.4287C14.5945 10.4287 14.7465 10.4891 14.8613 10.5975L16.4588 12.195C16.5712 12.306 16.6604 12.4383 16.7212 12.5841C16.7821 12.7299 16.8133 12.8864 16.8132 13.0444C16.8103 13.2088 16.7739 13.371 16.7062 13.5209C16.6385 13.6708 16.5409 13.8053 16.4194 13.9162V13.9219Z" fill="white"></path></g><defs><clipPath id="clip0_49_721"><rect width="18" height="18" fill="white"></rect></clipPath></defs></svg>